<svg xmlns="http://www.w3.org/2000/svg" width="408" height="414" style="shape-rendering:geometricPrecision;text-rendering:geometricPrecision;image-rendering:optimizeQuality;fill-rule:evenodd;clip-rule:evenodd"><path fill="#ed1f25" d="M194.5 9.5a191.026 191.026 0 0 1 34 2l-2 22a187.078 187.078 0 0 1 49.5 13 283.05 283.05 0 0 0 10.5-20c14.499 6.409 27.832 14.575 40 24.5A427.78 427.78 0 0 1 315 66.5c-.667 1-.667 2 0 3a237.654 237.654 0 0 1 34.5 34 214.324 214.324 0 0 0 16-11.5c.667-.667 1.333-.667 2 0 10.141 12.779 17.808 26.945 23 42.5-7.097 1.972-13.764 4.805-20 8.5 6.268 15.236 9.934 31.07 11 47.5a156.33 156.33 0 0 1 23-1c.167 12.671 0 25.338-.5 38a14.436 14.436 0 0 1-5 1 1400.684 1400.684 0 0 1-17.5-2 176.85 176.85 0 0 1-11 47.5c6.072 4.084 12.739 6.918 20 8.5-5.192 15.555-12.859 29.721-23 42.5-.667.667-1.333.667-2 0a271.355 271.355 0 0 0-16-11.5 258.897 258.897 0 0 1-36 35.5c4.347 5.678 8.681 11.344 13 17-3.025 3.682-6.691 6.682-11 9a301.29 301.29 0 0 1-29 15.5l-10-20a170.838 170.838 0 0 1-50 13 123.627 123.627 0 0 1 2 23 201.155 201.155 0 0 1-49-1 370.538 370.538 0 0 1 2-22c-15.702-1.342-30.702-5.342-45-12a274.506 274.506 0 0 1-9.5 20c-16.8-7.06-32.134-16.394-46-28 3.237-5.943 7.403-11.443 12.5-16.5a294.472 294.472 0 0 1-32-32.5 460.17 460.17 0 0 1-16.5 12c-11.084-13.509-18.918-28.509-23.5-45a296.406 296.406 0 0 0 18-8 177.413 177.413 0 0 1-11-44c-7.038.291-14.039.958-21 2v-46c6.96.996 13.96 1.663 21 2 1.16-15.304 4.826-29.971 11-44a119.059 119.059 0 0 0-18-7.5c-.976-2.147-.809-4.314.5-6.5 6.073-14.042 13.74-27.042 23-39a290.661 290.661 0 0 0 16.5 12 267.697 267.697 0 0 1 30.5-31c.667-1 .667-2 0-3l-9-10c-1.29-1.555-1.956-3.221-2-5a230.712 230.712 0 0 1 46-28 274.605 274.605 0 0 1 9.5 20 154.234 154.234 0 0 1 45-12 287.686 287.686 0 0 0-2-22c5.231.056 10.231-.611 15-2Z" style="opacity:1"/><path fill="#2d3091" d="M317.5 134.5v17h-205v19h19v18h-19a576.628 576.628 0 0 0-1 48h-17v-102h223Z" style="opacity:1"/><path fill="#696ab0" d="M317.5 134.5h-223v102a2652.905 2652.905 0 0 1-1-103 12543 12543 0 0 1 224 1Z" style="opacity:1"/><path fill="#5f60ab" d="M208.5 155.5h-28v81h17c-5.81.99-11.81 1.323-18 1v-83c9.848-.327 19.514.006 29 1Z" style="opacity:1"/><path fill="#2e3192" d="M208.5 155.5c9.017 1.177 14.85 6.177 17.5 15 3.028 12.865 1.694 25.199-4 37-6.683 6.886-14.85 9.552-24.5 8v21h-17v-81h28Z" style="opacity:1"/><path fill="#5353a4" d="M300.5 155.5h-30v81a1681.8 1681.8 0 0 1-1-82c10.514-.328 20.847.006 31 1Z" style="opacity:1"/><path fill="#2e3192" d="M300.5 155.5c10.086 3.819 15.586 11.152 16.5 22 1.161 8.919.161 17.586-3 26-2.888 6.886-8.055 10.719-15.5 11.5a60.931 60.931 0 0 1-11 .5v21h-17v-81h30Z" style="opacity:1"/><path fill="#8385be" d="M112.5 188.5v49c-6.19.323-12.19-.01-18-1h17a576.628 576.628 0 0 1 1-48Z" style="opacity:1"/><path fill="#a3a3ce" d="M139.5 220.5v16h13c-4.47.986-9.137 1.319-14 1-.322-5.858.011-11.525 1-17Z" style="opacity:1"/><path fill="#303292" d="M139.5 220.5h13v16h-13v-16Z" style="opacity:1"/><path fill="#6c6db2" d="M226.5 220.5h14v17h-14v-17Z" style="opacity:1"/><path fill="#2b2e90" d="M227.5 221.5h12v15h-12v-15Z" style="opacity:1"/><path fill="#fee8e8" d="M250.5 252.5c16.198-.981 21.365 6.019 15.5 21-8.907 6.393-16.241 5.06-22-4-2.212-7.485-.046-13.152 6.5-17Z" style="opacity:1"/><path fill="#feeaeb" d="M113.5 252.5a258.785 258.785 0 0 1 12 23.5c-1 .667-2 .667-3 0a43.725 43.725 0 0 1-3-5.5c-3.622-1.159-7.289-1.325-11-.5a43.725 43.725 0 0 0-3 5.5c-1 1.333-2 1.333-3 0a364.247 364.247 0 0 1 11-23Z" style="opacity:1"/><path fill="#fffdfd" d="M132.5 253.5v21h9c-3.184 1.914-6.851 2.58-11 2-.632-8.073.035-15.74 2-23Z" style="opacity:1"/><path fill="#fef1f1" d="M170.5 255.5h-9v7h10v3h-10c.58 4.149-.086 7.816-2 11v-23c4.149-.58 7.816.086 11 2Z" style="opacity:1"/><path fill="#fee9e9" d="M185.5 252.5a258.785 258.785 0 0 1 12 23.5c-1 .667-2 .667-3 0a43.725 43.725 0 0 1-3-5.5c-3.622-1.159-7.289-1.325-11-.5a43.725 43.725 0 0 0-3 5.5c-.825.886-1.825 1.219-3 1a194.626 194.626 0 0 1 11-24Zm15 0c1.175-.219 2.175.114 3 1a52.108 52.108 0 0 0 5.5 8 52.108 52.108 0 0 0 5.5-8c1-1.333 2-1.333 3 0a114.34 114.34 0 0 1-6.5 11 72.367 72.367 0 0 0-.5 12h-3a72.367 72.367 0 0 0-.5-12 41.965 41.965 0 0 1-6.5-12Z" style="opacity:1"/><path fill="#fef2f3" d="M232.5 253.5c6.211 1.496 7.545 4.996 4 10.5l-6 2.5a108.03 108.03 0 0 1 8 9.5c-1.333.667-2.667.667-4 0a111.037 111.037 0 0 0-8-9.5c-.396 3.763-1.396 7.097-3 10v-23h9Z" style="opacity:1"/><path fill="#ffe7e7" d="M274.5 253.5c1.646 5.427 2.646 11.094 3 17 1.328 3.754 3.994 4.921 8 3.5l1.5-1.5c.5-6.658.666-13.325.5-20h3c.166 7.008 0 14.008-.5 21-5 5.333-10 5.333-15 0-.5-6.658-.666-13.325-.5-20Z" style="opacity:1"/><path fill="#feecec" d="M300.5 272.5c-.543.06-.876.393-1 1l9 2a43.117 43.117 0 0 1-13 1 290.332 290.332 0 0 0 9-21h-8v-3a43.117 43.117 0 0 1 13 1 245.808 245.808 0 0 0-9 19Z" style="opacity:1"/><path fill="#f7989c" d="M132.5 252.5v1c-1.965 7.26-2.632 14.927-2 23h-1v-24h3Z" style="opacity:1"/><path fill="#f25459" d="M132.5 252.5c.991 6.813 1.325 13.813 1 21 2.885-.306 5.552.027 8 1h-9v-22Z" style="opacity:1"/><path fill="#fac2c4" d="M170.5 255.5c-3.184-1.914-6.851-2.58-11-2v23c-.992-7.816-1.326-15.816-1-24h13c.237 1.291-.096 2.291-1 3Z" style="opacity:1"/><path fill="#f9b6b8" d="M232.5 253.5h-9v23c-.992-7.816-1.326-15.816-1-24 3.542-.313 6.875.021 10 1Z" style="opacity:1"/><path fill="#fabfc1" d="M274.5 253.5c.709-.904 1.709-1.237 3-1v18c-.354-5.906-1.354-11.573-3-17Z" style="opacity:1"/><path fill="#ed2528" d="M252.5 254.5c10.609-.232 14.776 4.768 12.5 15-3.35 4.583-7.85 6.083-13.5 4.5-8.08-6.815-7.747-13.315 1-19.5Z" style="opacity:1"/><path fill="#ee2f30" d="M225.5 255.5a32.462 32.462 0 0 1 8 .5c2.667 2.333 2.667 4.667 0 7a32.462 32.462 0 0 1-8 .5v-8Z" style="opacity:1"/><path fill="#ef3232" d="M113.5 258.5c1.559 2.108 2.892 4.441 4 7-2.333 1.333-4.667 1.333-7 0a44.684 44.684 0 0 1 3-7Z" style="opacity:1"/><path fill="#ef3332" d="M185.5 258.5a408.083 408.083 0 0 1 4 7 13.116 13.116 0 0 1-7 1c.44-2.88 1.44-5.546 3-8Z" style="opacity:1"/><path fill="#f25c5f" d="M141.5 274.5c.767.672 1.434 1.505 2 2.5-4.852.815-9.519.648-14-.5h1c4.149.58 7.816-.086 11-2Z" style="opacity:1"/><path fill="#f36d71" d="M300.5 272.5c2.787.977 5.787 1.31 9 1v4c-4.863.319-9.53-.014-14-1a43.117 43.117 0 0 0 13-1l-9-2c.124-.607.457-.94 1-1Z" style="opacity:1"/><path fill="#eb0f18" d="M317.5 247.5v1h-222v33c73.835-.333 147.502.001 221 1h-222v-35h223Z" style="opacity:1"/></svg>