<svg xmlns="http://www.w3.org/2000/svg" width="174" height="240" style="shape-rendering:geometricPrecision;text-rendering:geometricPrecision;image-rendering:optimizeQuality;fill-rule:evenodd;background:#00;clip-rule:evenodd"><path fill="#ec1c24" d="M145.5 4.5c2.186 1.323 3.686 3.323 4.5 6 3.591 8.756 5.924 17.756 7 27a29.97 29.97 0 0 1-6-7l-.5 4a7129.375 7129.375 0 0 1 11 124c.432 11.238-1.735 21.905-6.5 32l-4 4c2.014-8.428 3.18-17.095 3.5-26a5368.085 5368.085 0 0 1-13-149.5l.5-7.5a17.339 17.339 0 0 0 3.5-7Z" style="opacity:.859"/><path fill="#ec1c24" d="M128.5 32.5c1.593.848 2.76 2.181 3.5 4 3.44 8.102 5.773 16.436 7 25a22.755 22.755 0 0 1-4-5l-.5 6.5a2414.362 2414.362 0 0 1 4 64.5c2.673.286 5.007.62 7 1-2.801 3.272-4.801 6.938-6 11a1361.504 1361.504 0 0 1 4 61 47.241 47.241 0 0 1 13-3c7.708-.131 10.875 3.536 9.5 11a55.099 55.099 0 0 1-5.5 10.5c-3.381 2.245-7.048 2.912-11 2a49.189 49.189 0 0 1-11-7.5c-4.549 3.027-9.549 4.693-15 5-13.134 17.429-29.134 20.596-48 9.5-12.379-9.992-16.879-22.826-13.5-38.5.753-5.429 2.587-10.429 5.5-15a28.522 28.522 0 0 1-4.5-9c-10.79 13.625-23.622 24.792-38.5 33.5-8.81 3.671-14.976 1.171-18.5-7.5-1.755-8.616-1.921-17.283-.5-26a49.956 49.956 0 0 0-2-12c.948-7.73 3.948-14.563 9-20.5 1.135-.749 2.135-.583 3 .5a51.622 51.622 0 0 0-6 15c.512 3.032 2.178 4.199 5 3.5l6.5-6.5c-.734 6.503-3.567 12.003-8.5 16.5a8.43 8.43 0 0 1-4 .5c-.748 8.33.418 16.33 3.5 24 1.182 1.857 2.849 2.857 5 3 6.133-1.14 11.633-3.64 16.5-7.5a458.197 458.197 0 0 0 27-24c-11.005-6.005-20.505-13.839-28.5-23.5-5.394-6.633-6.727-13.966-4-22l10 6c.138 1.932-.362 3.766-1.5 5.5a160.402 160.402 0 0 0 25 22.5c.633-10.437 5.633-17.937 15-22.5a132.523 132.523 0 0 1 29.5 1.5 1324.157 1324.157 0 0 0-5.5-53.5c.443-4.635 2.776-8.135 7-10.5a521.044 521.044 0 0 1 7 64 96.873 96.873 0 0 0 16 1 11227.15 11227.15 0 0 1-4.5-61 231.171 231.171 0 0 0-3.5-24 1658.19 1658.19 0 0 0 6-9Zm-51 101c10.02.412 20.02 1.078 30 2 .285 1.788-.048 3.455-1 5a431.108 431.108 0 0 0-17.5 9l-2.5-2.5a272.853 272.853 0 0 1-17.5-7.5c-.507-1.496-.007-2.663 1.5-3.5 2.504-.698 4.837-1.531 7-2.5Zm51 8h3a548.46 548.46 0 0 1 3 64c-1.598.985-3.265 1.151-5 .5 4.376-10.485 3.876-20.652-1.5-30.5a25.59 25.59 0 0 0-10-6 484.726 484.726 0 0 0-1.5-18.5 14.436 14.436 0 0 1 1-5 196.459 196.459 0 0 0 11-4.5Zm-43 20c1.535 1.288 3.201 1.288 5 0-1.211-1.22-1.211-2.387 0-3.5l17-8.5c1.521 6.526 1.854 13.026 1 19.5a102.969 102.969 0 0 1-29 2c-2.267-1.081-2.434-2.581-.5-4.5a25.534 25.534 0 0 1 6.5-5Zm-18-9a35.56 35.56 0 0 1 14 3 135.155 135.155 0 0 1-8.5 11c-3.776-3.84-5.609-8.506-5.5-14Zm5 27c4.437 2.443 9.27 3.776 14.5 4 7.515-.96 15.015-1.96 22.5-3a108.484 108.484 0 0 0 1.5 22c.903 4.305 2.737 8.139 5.5 11.5-9.767 9.29-20.767 10.957-33 5-9.458-5.414-13.791-13.581-13-24.5a53.899 53.899 0 0 1 2-15Zm46 4c8.845 5.374 10.845 12.707 6 22-1.922-1.503-3.088-3.503-3.5-6a402.666 402.666 0 0 1-2.5-16Zm33 24c2.726-.236 5.059.597 7 2.5-2.803.755-5.47.422-8-1 .556-.383.889-.883 1-1.5Z" style="opacity:.885"/><path fill="#2e3092" d="M42.5 54.5c1.965.448 2.298 1.448 1 3-.886-.825-1.219-1.825-1-3Z" style="opacity:.486"/><path fill="#e6e7e8" d="M101.5 197.5c-.876-.131-1.543.202-2 1 1.145 1.391 1.145 2.724 0 4-6.345-3.327-9.345-1.327-9 6a19.573 19.573 0 0 1-7-4.5c.126-1.974.292-4.141.5-6.5 3.735-7.583 9.068-8.917 16-4a10.134 10.134 0 0 1 1.5 4Z" style="opacity:1"/><path fill="#b8a8c3" d="M101.5 197.5c1.001 4.51-.666 8.01-5 10.5l1 1c-2.347.334-4.68.167-7-.5-.345-7.327 2.655-9.327 9-6 1.145-1.276 1.145-2.609 0-4 .457-.798 1.124-1.131 2-1Z" style="opacity:1"/><path fill="#2e3092" d="M9.5 211.5h8c.351 2.369.518 4.703.5 7-2.72.944-5.553 1.277-8.5 1 .871-2.562.871-5.228 0-8Z" style="opacity:.596"/><path fill="#2e3092" d="M19.5 211.5c1.248.834 1.915 2.167 2 4l-1 4a16.868 16.868 0 0 1-1-8Z" style="opacity:.736"/><path fill="#2e3092" d="M22.5 211.5c2.763.244 4.93 1.577 6.5 4a8.435 8.435 0 0 0 .5-4h3v8c-2.763-.244-4.93-1.577-6.5-4a8.435 8.435 0 0 0-.5 4h-3v-8Z" style="opacity:.495"/><path fill="#2e3092" d="M33.5 211.5h8c.219 1.175-.114 2.175-1 3a9.107 9.107 0 0 0-5-1v4c1.992.172 3.658-.495 5-2 .929 1.189 1.262 2.522 1 4h-8v-8Z" style="opacity:.678"/><path fill="#2e3092" d="M42.5 211.5a21.128 21.128 0 0 1 9 1 20.204 20.204 0 0 1-6 1.5c4 1 4 2 0 3 2.077.192 4.077.692 6 1.5a21.128 21.128 0 0 1-9 1v-8Z" style="opacity:.557"/><path fill="#2e3092" d="M13.5 223.5h4v9h-3c.132-3.07-.201-6.07-1-9Z" style="opacity:.433"/><path fill="#2e3191" d="M21.5 223.5c2.357-.163 4.69.003 7 .5a15.28 15.28 0 0 1 1.5 4.5c1.886-2.742 4.386-4.409 7.5-5v5c2.676.508 5.343.675 8 .5-4-1-4-2 0-3-1.735-.651-3.402-.485-5 .5-.886-.825-1.219-1.825-1-3h8c2.188 8.75-.812 11.083-9 7l-2 2a20.81 20.81 0 0 0-7.5-3c-2.068 3.145-4.568 3.645-7.5 1.5l4-1c-4.735-.136-6.068-2.303-4-6.5Zm1 2c1.788-.285 3.455.048 5 1l-2.5 1c-1.376-.184-2.209-.851-2.5-2Zm12 1c1.273.577 1.273 1.243 0 2-.963-.47-.963-1.137 0-2Z" style="opacity:.579"/></svg>