<svg xmlns="http://www.w3.org/2000/svg" width="146" height="85" style="shape-rendering:geometricPrecision;text-rendering:geometricPrecision;image-rendering:optimizeQuality;fill-rule:evenodd;clip-rule:evenodd"><path fill="#ef6415" d="M45.5-.5h5C38.534 2.572 28.367 8.905 20 18.5 6.281 42.705 11.115 62.538 34.5 78a792.527 792.527 0 0 1 16 6.5h-5c-22.599-.94-37.932-11.94-46-33v-18C7.137 11.876 22.47.542 45.5-.5Z" style="opacity:.928"/><path fill="#ef6415" d="M67.5-.5h5C61.772 2.29 52.272 7.623 44 15.5 29.592 35.777 31.092 54.943 48.5 73c8.242 6.359 17.575 9.859 28 10.5v1h-10c-22.278-.895-37.111-11.895-44.5-33C18.674 29.65 26.84 13.817 46.5 4c6.924-2.537 13.924-4.037 21-4.5Z" style="opacity:.923"/><path fill="#ef6315" d="M73.5-.5h3c15.065.448 27.565 6.448 37.5 18 9.964 16.348 9.964 32.681 0 49-9.712 11.772-22.212 17.439-37.5 17 28.643-7.115 40.476-25.115 35.5-54-3.701-9.592-9.867-17.092-18.5-22.5-6.54-3.23-13.207-5.73-20-7.5Z" style="opacity:.874"/><path fill="#ed6114" d="M93.5-.5h4c34.011 5.023 47.511 24.357 40.5 58-8.631 16.393-22.131 25.393-40.5 27h-4c19.166-2.335 32.666-12.335 40.5-30 4.905-22.03-2.595-38.53-22.5-49.5a204.027 204.027 0 0 0-18-5.5Z" style="opacity:.811"/><path fill="#f16516" d="M69.5 2.5c25.075 8.467 34.908 25.8 29.5 52-5.062 13.23-14.229 22.23-27.5 27-23.62-9.57-32.787-26.903-27.5-52 4.961-12.458 13.461-21.458 25.5-27Z" style="opacity:.981"/></svg>