<svg xmlns="http://www.w3.org/2000/svg" width="200" height="200" style="shape-rendering:geometricPrecision;text-rendering:geometricPrecision;image-rendering:optimizeQuality;fill-rule:evenodd;clip-rule:evenodd"><path fill="#5b99d2" d="M63.5 47.5h-1c-5.671-.449-11.004.551-16 3a27.007 27.007 0 0 1-7-2.5c2.874-.943 5.54-2.11 8-3.5a96.659 96.659 0 0 1 26-1.5 49.586 49.586 0 0 1-8.5 2.5c-1.03.336-1.53 1.003-1.5 2Z" style="opacity:1"/><path fill="#638eb7" d="M132.5 41.5c15.325 1.41 29.659 5.743 43 13a614.344 614.344 0 0 0-15.5-4c-4.207.06-5.04 1.394-2.5 4-15.071-5.013-30.404-8.346-46-10-5.156-.666-10.489-1-16-1-7.568-.21-14.9.456-22 2-3.156.934-6.49 1.6-10 2-.03-.997.47-1.664 1.5-2a49.586 49.586 0 0 0 8.5-2.5 96.659 96.659 0 0 0-26 1.5c10.69-2.9 21.69-4.734 33-5.5a289.236 289.236 0 0 1 34 0c6.221.27 12.221 1.104 18 2.5Z" style="opacity:1"/><path fill="#528fcf" d="M132.5 41.5c3.98 1.971 8.313 3.138 13 3.5a115.633 115.633 0 0 1-28-2 724.27 724.27 0 0 1-38-1.5 397.8 397.8 0 0 1 53 0Z" style="opacity:1"/><path fill="#4c637a" d="M111.5 44.5a493.131 493.131 0 0 0-38 1c7.1-1.544 14.432-2.21 22-2 5.511 0 10.844.334 16 1Z" style="opacity:1"/><path fill="#7bbde8" d="M175.5 54.5v3c-3.372-.949-6.705-.949-10 0-1.006-.438-1.006-1.104 0-2a16.868 16.868 0 0 0-8-1c-2.54-2.606-1.707-3.94 2.5-4a614.344 614.344 0 0 1 15.5 4Z" style="opacity:1"/><path fill="#7baace" d="M47.5 44.5c-2.46 1.39-5.126 2.557-8 3.5a27.007 27.007 0 0 0 7 2.5c4.996-2.449 10.329-3.449 16-3-10.987 2.441-21.654 6.108-32 11 1.554-1.395 1.221-2.061-1-2a18.186 18.186 0 0 0-3.5 2 20.737 20.737 0 0 0-7.5-3c8.834-5.572 18.5-9.239 29-11Z" style="opacity:1"/><path fill="#a0c1d0" d="M18.5 55.5c2.71.513 5.21 1.513 7.5 3a18.186 18.186 0 0 1 3.5-2c2.221-.061 2.554.605 1 2-3.64 3.305-7.308 6.638-11 10 .703-2.216 2.036-4.049 4-5.5a22.136 22.136 0 0 1-9-2.5 7.253 7.253 0 0 0-2.5 2l-1-1a38.44 38.44 0 0 1-5.5 5c2.913-5.298 7.247-8.964 13-11Z" style="opacity:1"/><path fill="#a3ccdf" d="M157.5 54.5c2.747-.313 5.414.02 8 1-1.006.896-1.006 1.562 0 2 3.295-.949 6.628-.949 10 0v-3c5.479 1.808 9.812 5.142 13 10-.996-.086-1.829.248-2.5 1-2.657-1.73-5.657-2.73-9-3-1.95.207-3.116 1.207-3.5 3a65.217 65.217 0 0 0-16-11Z" style="opacity:1"/><path fill="#cee3ea" d="M19.5 68.5h-1c.065-.438-.101-.772-.5-1a7.253 7.253 0 0 1-2.5 2 342.182 342.182 0 0 1-9.5-2 81.657 81.657 0 0 1-2.5 3c-.27-1.88.396-3.213 2-4a38.44 38.44 0 0 0 5.5-5l1 1a7.253 7.253 0 0 1 2.5-2 22.136 22.136 0 0 0 9 2.5c-1.964 1.451-3.297 3.284-4 5.5Z" style="opacity:1"/><path fill="#c0d2d3" d="M188.5 64.5c1.406.473 2.073 1.473 2 3-1.439-1.01-2.772-.676-4 1-6.804-3.275-9.471-1.275-8 6v5h-1c.473-5.24-.86-9.907-4-14 .384-1.793 1.55-2.793 3.5-3 3.343.27 6.343 1.27 9 3 .671-.752 1.504-1.086 2.5-1Z" style="opacity:1"/><path fill="#f1f8f7" d="M190.5 67.5c2.08 4.9.747 6.567-4 5-2.58.224-4.914.89-7 2h-1c-1.471-7.275 1.196-9.275 8-6 1.228-1.676 2.561-2.01 4-1Z" style="opacity:1"/><path fill="#f6faf6" d="M18.5 68.5a20.677 20.677 0 0 0-1 5h-14v-3c.815-.93 1.648-1.93 2.5-3 3.131.706 6.298 1.373 9.5 2a7.253 7.253 0 0 0 2.5-2c.399.228.565.562.5 1Z" style="opacity:1"/><path fill="#c9c5ab" d="M18.5 68.5h1a54.935 54.935 0 0 0-1 12c-.667 0-1-.333-1-1 .213-1.644-.12-3.144-1-4.5-4-.667-8-.667-12 0-.906 1.7-1.24 3.533-1 5.5-2.667-3.333-2.667-6.667 0-10v3h14a20.677 20.677 0 0 1 1-5Z" style="opacity:1"/><path fill="#ebe9cd" d="M190.5 67.5c1.604.787 2.271 2.12 2 4 .302 2.56-.032 4.893-1 7v-4h-12c2.086-1.11 4.42-1.776 7-2 4.747 1.567 6.08-.1 4-5Z" style="opacity:1"/><path fill="#e9df8d" d="M17.5 79.5c-3.72-2.15-7.72-2.484-12-1-.363.683-.696 1.35-1 2h-1c-.24-1.967.094-3.8 1-5.5 4-.667 8-.667 12 0 .88 1.356 1.213 2.856 1 4.5Z" style="opacity:1"/><path fill="#ebe18d" d="M178.5 74.5h13v3c-4.64-.525-8.973.142-13 2v-5Z" style="opacity:1"/><path fill="#888674" d="M192.5 71.5c1.402 3.79 1.069 7.456-1 11v-4c.968-2.107 1.302-4.44 1-7Z" style="opacity:1"/><path fill="#dac142" d="M17.5 79.5c0 .667.333 1 1 1-.26 2.49.74 4.156 3 5-2.073.638-4.073 1.638-6 3a28.061 28.061 0 0 0-5-5c.211 1.544.211 3.21 0 5-1.37-3.537-3.37-6.204-6-8 .304-.65.637-1.317 1-2 4.28-1.484 8.28-1.15 12 1Z" style="opacity:1"/><path fill="#989050" d="M18.5 80.5c1.39 1.4 2.39 3.066 3 5-2.26-.844-3.26-2.51-3-5Z" style="opacity:1"/><path fill="#d2b740" d="M191.5 77.5v5l-2 4c-2.927 1.257-5.261 3.257-7 6h-7c-.193-3.949-.693-3.949-1.5 0a9.457 9.457 0 0 0-1.5-2.5 74.208 74.208 0 0 1 3-6.5c.16-1.653.826-2.986 2-4h1c4.027-1.858 8.36-2.525 13-2Z" style="opacity:1"/><path fill="#caa642" d="M3.5 80.5h1c2.63 1.796 4.63 4.463 6 8 .211-1.79.211-3.456 0-5a28.061 28.061 0 0 1 5 5c1.927-1.362 3.927-2.362 6-3 1.667 1 3 2.333 4 4a186.2 186.2 0 0 0 2 3c-1.131 1.104-1.965.77-2.5-1a10.76 10.76 0 0 1-2.5 3c.21.586.543 1.086 1 1.5a29.816 29.816 0 0 1-5-.5v-3h-5c-2.216-.703-4.049-2.036-5.5-4-.61-2.25-1.944-3.917-4-5a4.932 4.932 0 0 1-.5-3Z" style="opacity:1"/><path fill="#8d7f50" d="M172.5 87.5a80.563 80.563 0 0 1-9 8h-4c4.328-2.659 8.662-5.326 13-8Z" style="opacity:1"/><path fill="#a2967b" d="M189.5 86.5c-1.739 2.743-4.073 4.743-7 6 1.739-2.743 4.073-4.743 7-6Z" style="opacity:1"/><path fill="#c39b40" d="M175.5 83.5a74.208 74.208 0 0 0-3 6.5 9.457 9.457 0 0 1 1.5 2.5c.807-3.949 1.307-3.949 1.5 0h7c-1.159 1.75-2.826 2.75-5 3-5.637-.49-10.304-.49-14 0a80.563 80.563 0 0 0 9-8c.238-1.904 1.238-3.238 3-4Z" style="opacity:1"/><path fill="#efebe6" d="M136.5 99.5c-9.59-3.98-19.257-7.98-29-12-1.773-1.392-3.773-2.559-6-3.5 2.757-.584 5.423-.25 8 1a572.002 572.002 0 0 0 35 15 31.6 31.6 0 0 1-8-.5Z" style="opacity:1"/><path fill="#a77546" d="M95.5 87.5a60.746 60.746 0 0 0 12 3v-3c9.743 4.02 19.41 8.02 29 12-6.217-.35-12.05-2.017-17.5-5-1.41.719-1.243 1.719.5 3 3.165.75 5.831 2.084 8 4a171.712 171.712 0 0 1-32-14Z" style="opacity:1"/><path fill="#bb773a" d="M136.5 99.5c4.03 1.588 3.863 2.588-.5 3a61.71 61.71 0 0 0-8.5-1c-2.169-1.916-4.835-3.25-8-4-1.743-1.281-1.91-2.281-.5-3 5.45 2.983 11.283 4.65 17.5 5Z" style="opacity:1"/><path fill="#8b7152" d="M56.5 93.5c-1.608 3.444-4.108 6.11-7.5 8-1.03-.336-1.53-1.003-1.5-2a4.932 4.932 0 0 0 3-.5 46.142 46.142 0 0 1 6-5.5Z" style="opacity:1"/><path fill="#9f7347" d="M159.5 95.5c-.507 1.359-1.507 2.359-3 3-4.642.74-8.976 2.24-13 4.5a63.994 63.994 0 0 0 21-1.5c-5.344 2.906-11.177 4.239-17.5 4-6.853-.176-13.353-1.51-19.5-4a61.71 61.71 0 0 1 8.5 1c4.363-.412 4.53-1.412.5-3a31.6 31.6 0 0 0 8 .5 572.002 572.002 0 0 1-35-15c-2.577-1.25-5.243-1.584-8-1 2.227.941 4.227 2.108 6 3.5-5.45.301-9.117-2.032-11-7a4.452 4.452 0 0 0-1.5 2 177.374 177.374 0 0 1-19.5-7c-5.184.016-8.518 2.516-10 7.5 1.445 3.137 3.278 3.303 5.5.5.085-1.585.251-2.918.5-4a77.062 77.062 0 0 0 11 1.5c.556.383.89.883 1 1.5a31.608 31.608 0 0 0-8-.5c-3.527 2.362-6.527 5.195-9 8.5v-3h-5c.157 2.844-1.176 4.51-4 5a4452.84 4452.84 0 0 0 9.5-15c2.385-2.276 5.219-3.61 8.5-4a178.93 178.93 0 0 1 17 6 20.026 20.026 0 0 0 5-2.5c2-.667 4-.667 6 0a701.832 701.832 0 0 0 46 20c3.521.69 6.855.19 10-1.5Z" style="opacity:1"/><path fill="#8e7458" d="M83.5 82.5c4.613.652 8.613 2.32 12 5-4.287-1.148-8.287-2.815-12-5Z" style="opacity:1"/><path fill="#bd773a" d="M107.5 87.5v3a60.746 60.746 0 0 1-12-3c-3.387-2.68-7.387-4.348-12-5-.11-.617-.444-1.117-1-1.5a77.062 77.062 0 0 1-11-1.5c-.249 1.082-.415 2.415-.5 4-2.222 2.803-4.055 2.637-5.5-.5 1.482-4.984 4.816-7.484 10-7.5a177.374 177.374 0 0 0 19.5 7 4.452 4.452 0 0 1 1.5-2c1.883 4.968 5.55 7.301 11 7Z" style="opacity:1"/><path fill="#bd833c" d="M66.5 90.5a325.417 325.417 0 0 1-13 14 50.464 50.464 0 0 1-10-.5l4-1a69.934 69.934 0 0 0-7.5-2.5c-1.658.175-2.991.842-4 2A140.795 140.795 0 0 1 25.5 98a4.932 4.932 0 0 1 3-.5v-3a84.636 84.636 0 0 0 17 5h2c-.03.997.47 1.664 1.5 2 3.392-1.89 5.892-4.556 7.5-8 0-.667.333-1 1-1 2.824-.49 4.157-2.156 4-5h5v3Z" style="opacity:1"/><path fill="#997453" d="M66.5 90.5a31.525 31.525 0 0 1-5.5 9c-1.857 2.7-4.357 4.366-7.5 5a325.417 325.417 0 0 0 13-14Z" style="opacity:1"/><path fill="#bf873d" d="M177.5 95.5c-3.724 3.139-8.057 5.139-13 6a63.994 63.994 0 0 1-21 1.5c4.024-2.26 8.358-3.76 13-4.5 1.493-.641 2.493-1.641 3-3h4c3.696-.49 8.363-.49 14 0Z" style="opacity:1"/><path fill="#aa7e45" d="M25.5 89.5a139.976 139.976 0 0 0 20 10 84.636 84.636 0 0 1-17-5v3a4.932 4.932 0 0 0-3 .5 140.795 140.795 0 0 0 10.5 4.5c1.009-1.158 2.342-1.825 4-2a69.934 69.934 0 0 1 7.5 2.5l-4 1c3.317.498 6.65.665 10 .5-2.011 1.393-4.345 2.06-7 2-12.259-1.967-23.259-6.633-33-14h5v3c1.726.315 3.392.481 5 .5a3.646 3.646 0 0 1-1-1.5 10.76 10.76 0 0 0 2.5-3c.535 1.77 1.369 2.104 2.5 1a186.2 186.2 0 0 1-2-3Z" style="opacity:1"/><path fill="#888" d="M184.5 108.5c3.338.349 4.338 2.016 3 5-1-1.333-2-1.333-3 0l-1-1.5a14.093 14.093 0 0 0 1-3.5Z" style="opacity:1"/><path fill="#3a3a3a" d="M132.5 111.5c1.305 1.897 1.971 4.231 2 7l-1 7a49.87 49.87 0 0 1-1-14Z" style="opacity:1"/><path fill="#626262" d="M142.5 112.5c1.788-1.122 3.788-1.289 6-.5l-1.5 1.5a56.43 56.43 0 0 0-4.5-1Z" style="opacity:1"/><path fill="#878787" d="M8.5 111.5c1.7-.16 3.366.006 5 .5-2.085 2.139-3.751 1.972-5-.5Z" style="opacity:1"/><path fill="#373737" d="M69.5 111.5c1.305 1.897 1.971 4.231 2 7l-1 7a49.874 49.874 0 0 1-1-14Z" style="opacity:1"/><path fill="#6b6b6b" d="M99.5 111.5c1.837.139 2.17.806 1 2-.797-.457-1.13-1.124-1-2Z" style="opacity:1"/><path fill="#373737" d="M158.5 111.5a4.934 4.934 0 0 1 3 .5 14.972 14.972 0 0 0-3 3.5c5.431 1.138 7.431 4.472 6 10-7.429-.155-14.762-.322-22-.5-4.348-7.905-2.015-11.072 7-9.5v8h13c.322-2.222-.345-4.056-2-5.5a52.745 52.745 0 0 0-7 0c2.265-1.758 3.932-3.925 5-6.5Z" style="opacity:1"/><path fill="#8a8a8a" d="M143.5 117.5c1.068-.934 2.401-1.268 4-1 .295 2.235-.039 4.235-1 6v-5h-3Z" style="opacity:1"/><path fill="#3c3c3c" d="M7.5 115.5h7c-.163 2.357.003 4.69.5 7 2 1.333 4 1.333 6 0 .186-2.4.686-4.734 1.5-7 1.152 2.606 1.318 5.273.5 8-1.3 1.48-2.966 2.146-5 2-3.499-1.041-6.999-1.208-10.5-.5-2.625-3.237-2.625-6.404 0-9.5Z" style="opacity:1"/><path fill="#3b3b3b" d="M34.5 111.5c1.923 3.529 2.59 7.529 2 12h12c.24-1.967-.094-3.801-1-5.5a390.419 390.419 0 0 1-7-.5c7.021-4.058 10.355-2.058 10 6h6v-8h3v8c1.967.239 3.8-.094 5.5-1a62.687 62.687 0 0 1 1.5-11 24.558 24.558 0 0 1 .5 12c-1.126 1.444-2.626 2.11-4.5 2a905.132 905.132 0 0 1-27-.5c-.967-4.401-1.3-8.901-1-13.5Z" style="opacity:1"/><path fill="#6a6a6a" d="M58.5 111.5c1.837.139 2.17.806 1 2-.797-.457-1.13-1.124-1-2Z" style="opacity:1"/><path fill="#666" d="M55.5 111.5c1.837.139 2.17.806 1 2-.797-.457-1.13-1.124-1-2Z" style="opacity:1"/><path fill="#353535" d="M105.5 119.5v5c-5.858-.322-11.525.011-17 1-1.328 3.754-3.994 4.921-8 3.5-3.257-2.711-3.757-5.877-1.5-9.5a33.995 33.995 0 0 0 1.5 7.5c2.079.808 4.079.641 6-.5l-2-3 1-1a9.107 9.107 0 0 0 5 1 9.864 9.864 0 0 1 1-6 6.807 6.807 0 0 1 1.5 3c2.072-4.643 5.572-6.143 10.5-4.5 1.323.816 1.989 1.983 2 3.5Z" style="opacity:1"/><path fill="#373737" d="M108.5 111.5c1.923 3.529 2.589 7.529 2 12a18.453 18.453 0 0 0 6-.5c-2.5-6.833-.333-9 6.5-6.5.758 2.269.591 4.436-.5 6.5 1.667.667 3.333.667 5 0 .636-3.79 1.303-7.623 2-11.5 4.275 10.914.775 15.581-10.5 14a52.582 52.582 0 0 1-10-1 84.902 84.902 0 0 1-.5-13Z" style="opacity:1"/><path fill="#5e5e5e" d="M116.5 112.5c1.535-1.288 3.201-1.288 5 0-1.57.238-3.237.238-5 0Z" style="opacity:1"/><path fill="#333" d="M171.5 115.5c1.869 2.135 2.536 4.802 2 8h5c.667-8 1.333-8 2 0h5c.667-9.333 1.333-9.333 2 0 1.322.17 2.489-.163 3.5-1 .186-2.4.686-4.734 1.5-7 1.506 3.441 1.173 6.608-1 9.5l-18 1c-2.043 3.511-4.71 4.178-8 2a20.431 20.431 0 0 0 5.5-1.5c.499-3.652.665-7.318.5-11Z" style="opacity:1"/><path fill="#646464" d="M105.5 119.5c.961 1.765 1.295 3.765 1 6h-18c5.475-.989 11.142-1.322 17-1v-5Z" style="opacity:1"/><path fill="#454545" d="M30.5 115.5c1.287 1.371 1.953 3.205 2 5.5.556 6.285-2.11 8.785-8 7.5 1.841-.73 3.675-1.397 5.5-2a60.94 60.94 0 0 0 .5-11Z" style="opacity:1"/><path fill="#4c4c4c" d="M17.5 127.5c1.837.139 2.17.806 1 2-.797-.457-1.13-1.124-1-2Zm3 0c1.837.139 2.17.806 1 2-.797-.457-1.13-1.124-1-2Z" style="opacity:1"/><path fill="#575757" d="M44.5 127.5c1.837.139 2.17.806 1 2-.797-.457-1.13-1.124-1-2Z" style="opacity:1"/><path fill="#3f3f3f" d="M80.5 131.5c1.837.139 2.17.806 1 2-.797-.457-1.13-1.124-1-2Zm3 0c1.837.139 2.17.806 1 2-.797-.457-1.13-1.124-1-2Z" style="opacity:1"/><path fill="#2e2d2d" d="M26.5 139.5a32.462 32.462 0 0 1 8 .5c3.163 8 .496 11.5-8 10.5v-11Z" style="opacity:1"/><path fill="#323232" d="M55.5 139.5c2.62-.268 5.12.065 7.5 1a27.524 27.524 0 0 0 .5 8l-1 2c-.929-1.189-1.262-2.522-1-4h-4c.262 1.478-.071 2.811-1 4a31.12 31.12 0 0 1-1-11Z" style="opacity:1"/><path fill="#363636" d="M128.5 139.5c2.619-.268 5.119.065 7.5 1 .784 3.26.617 6.427-.5 9.5-2.402.814-4.735.647-7-.5-1.326-3.364-1.326-6.697 0-10Z" style="opacity:1"/><path fill="#272727" d="M160.5 139.5c.951 1.419 1.284 3.085 1 5l-2-3c-1.068-.934-2.401-1.268-4-1v10h-1v-11h6Z" style="opacity:1"/><path fill="#a5a5a5" d="M44.5 140.5h4v10c-.977-2.787-1.31-5.787-1-9-1.291.237-2.291-.096-3-1Z" style="opacity:1"/><path fill="#262626" d="M44.5 140.5c3-1.333 6-1.333 9 0h-4v10h-1v-10h-4Z" style="opacity:1"/><path fill="#6e6e6e" d="M53.5 140.5c-.709.904-1.709 1.237-3 1 .31 3.213-.023 6.213-1 9v-10h4Z" style="opacity:1"/><path fill="#818181" d="M160.5 139.5h-6v11c-.983-3.798-1.317-7.798-1-12 2.559-.302 4.893.032 7 1Z" style="opacity:1"/><path fill="#292929" d="M37.5 139.5c1.287 1.371 1.953 3.205 2 5.5l-1 5.5a31.12 31.12 0 0 1-1-11Z" style="opacity:1"/><path fill="#3d3d3d" d="M67.5 139.5c1.478-.262 2.811.071 4 1 1.78 3.279 2.448 6.612 2 10-.886-.825-1.219-1.825-1-3a12.93 12.93 0 0 0-5 .5c-.568 1.604-1.568 2.27-3 2 1.3-3.404 2.3-6.904 3-10.5Z" style="opacity:1"/><path fill="#3c3c3c" d="m179.5 145.5 1.5 3 1-9c.499 3.652.665 7.318.5 11-1.175.219-2.175-.114-3-1a42.638 42.638 0 0 0-3.5-8 42.769 42.769 0 0 1-1.5 9 31.116 31.116 0 0 1-1-11c3.749.117 5.749 2.117 6 6Z" style="opacity:1"/><path fill="#373737" d="M76.5 139.5c8.937-.897 11.27 2.603 7 10.5-2.31.497-4.643.663-7 .5v-11Z" style="opacity:1"/><path fill="#3c3b3b" d="M5.5 139.5c1.443.835 2.443 2.168 3 4 1.345-.847 2.345-2.013 3-3.5.832-.688 1.498-.521 2 .5-3.87 3.319-3.537 6.319 1 9a48.988 48.988 0 0 0 3.5-9c1.05-1.017 2.216-1.184 3.5-.5l4 10a4.934 4.934 0 0 1-3 .5v-3h-5v3c-4.284.577-7.284-1.09-9-5l-2 5a31.121 31.121 0 0 1-1-11Z" style="opacity:1"/><path fill="#484848" d="M142.5 143.5c.039-1.256-.461-2.256-1.5-3a50.464 50.464 0 0 0-.5 10c-1.914-3.184-2.58-6.851-2-11h5c.433 2.666.933 5.332 1.5 8a54.628 54.628 0 0 1 2-7c1.356-.88 2.856-1.214 4.5-1-.347 13.691-1.18 14.025-2.5 1a121.805 121.805 0 0 1-2.5 7.5c-3.43.638-4.763-.862-4-4.5Z" style="opacity:1"/><path fill="#595959" d="m159.5 141.5 2 3c-1.135 1.713-2.802 2.38-5 2 .268 1.599-.066 2.932-1 4v-6h4v-3Z" style="opacity:1"/><path fill="#404040" d="M165.5 139.5h4a43.171 43.171 0 0 0 3 10c-.825.886-1.825 1.219-3 1v-3h-5c.219 1.175-.114 2.175-1 3-.487-3.752.18-7.419 2-11Z" style="opacity:1"/><path fill="#dbdbdb" d="M166.5 140.5c1.431 1.28 2.098 2.947 2 5-1.175.219-2.175-.114-3-1a6.846 6.846 0 0 0 1-4Z" style="opacity:1"/><path fill="#909090" d="M182.5 150.5a60.931 60.931 0 0 0-.5-11l-1 9-1.5-3c.968-2.107 1.302-4.441 1-7h3c.317 4.202-.017 8.202-1 12Z" style="opacity:1"/><path fill="#4b4b4b" d="M119.5 139.5a18.453 18.453 0 0 1 6 .5 12.93 12.93 0 0 1-5 .5v8a9.86 9.86 0 0 1 6 1c-5.481 2.483-8.481.817-9-5-.063-2.014.603-3.681 2-5Z" style="opacity:1"/><path fill="#323232" d="M95.5 143.5c-.283-.789-.783-1.456-1.5-2a40.939 40.939 0 0 0-.5 9c-.982-3.462-1.315-7.129-1-11 1.175-.219 2.175.114 3 1l3.5 7a34.21 34.21 0 0 1 1.5-8 31.116 31.116 0 0 1 1 11c-3.585-.766-5.585-3.099-6-7Z" style="opacity:1"/><path fill="#757575" d="m95.5 143.5-2 7a40.939 40.939 0 0 1 .5-9c.717.544 1.217 1.211 1.5 2Z" style="opacity:1"/><path fill="#2a2a2a" d="M87.5 139.5c1.287 1.371 1.954 3.205 2 5.5l-1 5.5a31.12 31.12 0 0 1-1-11Z" style="opacity:1"/><path fill="#4a4a4a" d="M104.5 139.5c2.357-.163 4.69.003 7 .5a20.431 20.431 0 0 0-5.5 1.5 24.935 24.935 0 0 0-.5 7h5c-.285-1.788.048-3.455 1-5 1.333 2.333 1.333 4.667 0 7-2.155-.338-4.489-.338-7 0-1.157-3.716-1.157-7.383 0-11Z" style="opacity:1"/><path fill="#9f9f9f" d="m142.5 143.5-2 7c-.165-3.35.002-6.683.5-10 1.039.744 1.539 1.744 1.5 3Z" style="opacity:1"/><path fill="#3d3d3d" d="M184.5 140.5c.397-1.025 1.063-1.192 2-.5 1.393 1.171 2.227 2.671 2.5 4.5a29.517 29.517 0 0 1 2.5-4.5c.832-.688 1.498-.521 2 .5-2.167 2.969-3.501 6.303-4 10-1.167-3.668-2.834-7.002-5-10Z" style="opacity:1"/></svg>