<svg xmlns="http://www.w3.org/2000/svg" width="200" height="200" style="shape-rendering:geometricPrecision;text-rendering:geometricPrecision;image-rendering:optimizeQuality;fill-rule:evenodd;clip-rule:evenodd"><path fill="#8b8b8b" d="M91.5 3.5c3.462-.982 7.129-1.315 11-1-.221 2.779.112 5.446 1 8-4.077-.743-8.077-.743-12 0 .365-2.579.365-4.912 0-7Z" style="opacity:1"/><path fill="#c2c2c2" d="M93.5 3.5c5.336-1.315 8.003.685 8 6-1.175.219-2.175-.114-3-1 1.347-3.61.68-3.943-2-1-1.788-.783-2.788-2.116-3-4Z" style="opacity:1"/><path fill="#161616" d="M91.5 3.5c.365 2.088.365 4.421 0 7 3.923-.743 7.923-.743 12 0h1v3c-2.559-.302-4.893.032-7 1h-8a11.104 11.104 0 0 1-1-2.5c1.368-2.786 2.368-5.62 3-8.5Z" style="opacity:1"/><path fill="#747474" d="M104.5 10.5c.512 3.132.512 6.465 0 10h-2l-2-6h-3c2.107-.968 4.441-1.302 7-1v-3Z" style="opacity:1"/><path fill="#6c6c6c" d="M89.5 14.5h2c.233 1.562.9 2.895 2 4v3h-5a21.445 21.445 0 0 1 1-7Z" style="opacity:1"/><path fill="#b2b2b2" d="M91.5 14.5h9l2 6c-3.356.409-6.356-.258-9-2-1.1-1.105-1.767-2.438-2-4Z" style="opacity:1"/><path fill="#f0f0f0" d="M90.5 17.5c.767.672 1.434 1.505 2 2.5-1.561.188-2.228-.645-2-2.5Z" style="opacity:1"/><path fill="#3d3c3d" d="M93.5 18.5c2.644 1.742 5.644 2.409 9 2h2c38.584 4.797 63.584 25.797 75 63 .065 2.928.732 5.595 2 8 4.157 41.691-12.177 72.358-49 92-4.644 1.099-8.978 2.766-13 5-43.812 7.344-75.979-8.656-96.5-48a601.661 601.661 0 0 1-5.5-19c.961-1.765 1.295-3.765 1-6 1.426 11.164 5.093 21.664 11 31.5 1.789.52 3.456.187 5-1a82.83 82.83 0 0 1 9-6.5l2 2c-5.52 1.925-10.187 5.092-14 9.5 4.09 7.045 9.423 12.879 16 17.5 1 1.667 2.333 3 4 4 7.166 5.583 15.166 9.583 24 12a85.92 85.92 0 0 0 9 3h3a50.512 50.512 0 0 0 20 0c4.264.156 8.264-.511 12-2 3.797-.372 7.13-1.706 10-4 9.928-2.943 18.261-8.277 25-16 2.644-.644 4.311-2.311 5-5a46.493 46.493 0 0 0 7-9c.901-.79 1.568-1.79 2-3 16.55-30.02 15.883-59.687-2-89-.432-1.21-1.099-2.21-2-3-20.47-26.557-47.47-37.39-81-32.5-22.825 5.342-40.492 17.842-53 37.5 4.268 3.968 9.268 6.635 15 8l-2 2c-4.59-3.3-9.59-5.466-15-6.5-4.794 8.387-8.127 17.22-10 26.5 0-.667-.333-1-1-1 6.807-34.303 26.807-56.803 60-67.5a46.958 46.958 0 0 1 11-1.5h5v-3Z" style="opacity:1"/><path fill="#292f43" d="M92.5 39.5h15c10.115 1.981 19.449 5.815 28 11.5 5.875 4.374 10.875 9.541 15 15.5l2 2c12.645 22.853 13.312 46.187 2 70l-2 3v-2c-.134-1.792.199-3.458 1-5 1.713-1.135 2.38-2.802 2-5 .667 0 1-.333 1-1 9.811-31.912 1.478-57.745-25-77.5-7.295-4.814-15.295-7.647-24-8.5a24.93 24.93 0 0 0-8-1c-2.825-.338-4.992.662-6.5 3a6.807 6.807 0 0 0-1.5-3c-.607.124-.94.457-1 1-1.548.321-2.215 1.321-2 3-1.222 2.61-1.222 5.277 0 8l-2 7 1 2c1.822-3.602 2.822-3.602 3 0 2.894.458 5.394-.209 7.5-2 .816 1.323 1.983 1.99 3.5 2h3a8.43 8.43 0 0 1 .5-4c.196 1.786 1.029 3.12 2.5 4a31.867 31.867 0 0 0 3-7 218.094 218.094 0 0 0 2.5-6 77.73 77.73 0 0 1 0 13l3-5a20.204 20.204 0 0 0 1.5 6 27.368 27.368 0 0 1 4-8c.886.825 1.219 1.825 1 3-1.275 2.108-1.775 4.442-1.5 7l2-2a10.256 10.256 0 0 0 1.5 4c1.022-.356 1.689-1.022 2-2 1.661-2.718 3.661-4.384 6-5a59.024 59.024 0 0 0-5 9c1.368 1.094 2.535.76 3.5-1-.096 1.88.071 3.547.5 5l2 2a2.429 2.429 0 0 0 .5 2 32.367 32.367 0 0 0 4.5-3c.798.457 1.131 1.124 1 2-1.755 1.404-3.755 2.404-6 3-3.23-1.228-4.896-3.561-5-7h-3c.381-2.442-.286-3.109-2-2-1.977-2.647-4.644-3.98-8-4a4.934 4.934 0 0 0-.5-3c-1.011.837-2.178 1.17-3.5 1a12.93 12.93 0 0 0-.5-5c-1.636 2.727-1.802 5.393-.5 8 0 .667.333 1 1 1-2.088.365-4.421.365-7 0 1.068-.934 2.401-1.268 4-1v-4c-2.281-.423-3.948.244-5 2a5.728 5.728 0 0 0-3 1v-3c-2.885-.306-5.552.027-8 1h-1c-3.546.774-6.88 1.108-10 1a37.073 37.073 0 0 0-8 5c-1.322.17-2.489-.163-3.5-1-.278.916-.778 1.582-1.5 2a39.963 39.963 0 0 0-6-8.5c.531-1.718 1.198-1.885 2-.5a36.131 36.131 0 0 0 7.5 7 7.493 7.493 0 0 1 .5-5 9.427 9.427 0 0 1 3 3l1-1c-1.109-3.208-2.442-6.208-4-9a4.932 4.932 0 0 1 .5-3l6 10c.595-1.399.428-2.732-.5-4h4c-2.178-3.155-2.844-6.488-2-10a59.887 59.887 0 0 0 4.5 10c.373-5.689.873-11.355 1.5-17-18.1 3.91-31.933 13.91-41.5 30-6.763 13.577-9.096 27.91-7 43 .822 4.685 2.322 9.019 4.5 13a51.648 51.648 0 0 0 1 7 28.936 28.936 0 0 1-3.5-5c-7.078-20.669-5.911-40.67 3.5-60l2-2a41.337 41.337 0 0 1 7-10c1.667-1 3-2.333 4-4 5.026-5.184 11.026-8.85 18-11 1.653-.16 2.986-.826 4-2a40.63 40.63 0 0 1 14-3Z" style="opacity:1"/><path fill="#edeeed" d="M164.5 56.5c-3.542 4.783-8.209 8.117-14 10-4.125-5.959-9.125-11.126-15-15.5-8.551-5.685-17.885-9.519-28-11.5l-2-2a10.51 10.51 0 0 0 3-2.5 40.48 40.48 0 0 1 13 .5 103.547 103.547 0 0 1 23 14.5c2.141.884 3.807.384 5-1.5-.891-1.09-1.891-1.09-3 0-1.09-.891-1.09-1.891 0-3-5.055-1.07-9.389-3.403-13-7a30.968 30.968 0 0 1 2-2c-.124-.607-.457-.94-1-1a33.244 33.244 0 0 0-7-3c-3.528.231-7.195-.102-11-1a41.58 41.58 0 0 0-8-1c-.017-1.528-.684-2.028-2-1.5-.88 1.356-1.214 2.856-1 4.5h-4c.284-1.915-.049-3.581-1-5-3.774-.016-4.774 1.65-3 5l-6 2c.457.797 1.124 1.13 2 1 .418.722 1.084 1.222 2 1.5-1.237.232-2.237.732-3 1.5a40.63 40.63 0 0 0-14 3c-1.782-1.22-3.782-1.886-6-2 .027 1.7.694 3.033 2 4-6.974 2.15-12.974 5.816-18 11-.951-1.419-1.285-3.085-1-5 9.84-8.795 21.34-14.462 34.5-17 .884-2.14.384-3.807-1.5-5-1.09.891-1.09 1.891 0 3-12.803 2.569-24.136 8.069-34 16.5-2.808.92-4.975.087-6.5-2.5-.381 2.981.952 4.981 4 6a8.434 8.434 0 0 1 .5 4c-1.644.214-3.144-.12-4.5-1-.74 1.25-.574 2.25.5 3l4 2a41.337 41.337 0 0 0-7 10c-5.732-1.365-10.732-4.032-15-8 12.508-19.658 30.175-32.158 53-37.5 33.53-4.89 60.53 5.943 81 32.5Z" style="opacity:1"/><path fill="#393637" d="M140.5 50.5c1.495-.085 2.495.581 3 2-1.896 1.14-2.896.473-3-2Z" style="opacity:1"/><path fill="#2b2c2c" d="m123.5 34.5 10 4c3.611 3.597 7.945 5.93 13 7-1.09 1.109-1.09 2.109 0 3 1.109-1.09 2.109-1.09 3 0-1.193 1.884-2.859 2.384-5 1.5a103.547 103.547 0 0 0-23-14.5c.342-.838 1.008-1.172 2-1Z" style="opacity:1"/><path fill="#a4adcb" d="M90.5 42.5c.965 1.221.798 2.554-.5 4-.383-.556-.883-.89-1.5-1-.215-1.679.452-2.679 2-3Z" style="opacity:1"/><path fill="#636166" d="M78.5 42.5c-1.014 1.174-2.347 1.84-4 2-1.306-.967-1.973-2.3-2-4 2.218.114 4.218.78 6 2Z" style="opacity:1"/><path fill="#c5c6c8" d="M100.5 28.5c.951 1.419 1.284 3.085 1 5h4c-.214-1.644.12-3.144 1-4.5 1.316-.528 1.983-.028 2 1.5-1.676.683-2.343 2.017-2 4h-4v3h3l2 2h-15c.763-.768 1.763-1.268 3-1.5-.916-.278-1.582-.778-2-1.5 5.08-.12 7.413-2.787 7-8Z" style="opacity:1"/><path fill="#404141" d="M108.5 30.5a41.58 41.58 0 0 1 8 1 60.206 60.206 0 0 0 7 3c-.992-.172-1.658.162-2 1a40.48 40.48 0 0 0-13-.5 10.51 10.51 0 0 1-3 2.5h-3v-3h4c-.343-1.983.324-3.317 2-4Z" style="opacity:1"/><path fill="#383737" d="M55.5 50.5c.035 4.632-2.298 6.965-7 7-1.074-.75-1.24-1.75-.5-3 1.356.88 2.856 1.214 4.5 1a8.434 8.434 0 0 0-.5-4c-3.048-1.019-4.381-3.019-4-6 1.525 2.587 3.692 3.42 6.5 2.5 9.864-8.431 21.197-13.931 34-16.5-1.09-1.109-1.09-2.109 0-3 1.884 1.193 2.384 2.86 1.5 5-13.16 2.538-24.66 8.205-34.5 17Z" style="opacity:1"/><path fill="#3b3b3b" d="M127.5 32.5a33.244 33.244 0 0 1 7 3c-.751 1.074-1.751 1.24-3 .5-2.044-.498-3.378-1.665-4-3.5Z" style="opacity:1"/><path fill="#bab9bc" d="M116.5 31.5c3.805.898 7.472 1.231 11 1 .622 1.835 1.956 3.002 4 3.5 1.249.74 2.249.574 3-.5.543.06.876.393 1 1a30.968 30.968 0 0 0-2 2l-10-4a60.206 60.206 0 0 1-7-3Z" style="opacity:1"/><path fill="#272827" d="M100.5 28.5c.413 5.213-1.92 7.88-7 8-.876.13-1.543-.203-2-1l6-2c-1.774-3.35-.774-5.016 3-5Z" style="opacity:1"/><path fill="#4c5a85" d="M99.5 41.5a24.93 24.93 0 0 1 8 1l1 10v4a6.846 6.846 0 0 1-4-1c-.641 1.493-1.641 2.493-3 3a21.764 21.764 0 0 0-4.5-8 69.681 69.681 0 0 1-5 8l-.5-2.5A165.053 165.053 0 0 0 98 45.5c.773 4.15 2.273 7.15 4.5 9h3a19.051 19.051 0 0 1 1-6l-1-2a6.802 6.802 0 0 0-1.5 3l-1-4c-1.627-1.032-2.793-2.366-3.5-4Z" style="opacity:1"/><path fill="#a9a9ab" d="M55.5 50.5c-.285 1.915.049 3.581 1 5-1 1.667-2.333 3-4 4l-4-2c4.702-.035 7.035-2.368 7-7Z" style="opacity:1"/><path fill="#7583ae" d="M90.5 42.5c.06-.543.393-.876 1-1a6.807 6.807 0 0 1 1.5 3c1.508-2.338 3.675-3.338 6.5-3 .707 1.634 1.873 2.968 3.5 4l1 4a6.802 6.802 0 0 1 1.5-3l1 2a19.051 19.051 0 0 0-1 6h-3c-2.227-1.85-3.727-4.85-4.5-9A165.053 165.053 0 0 1 91.5 56l.5 2.5a69.681 69.681 0 0 0 5-8 21.764 21.764 0 0 1 4.5 8v4c-1.517-.01-2.684-.677-3.5-2-2.106 1.791-4.606 2.458-7.5 2-.178-3.602-1.178-3.602-3 0l-1-2 2-7c-1.222-2.723-1.222-5.39 0-8 .617.11 1.117.444 1.5 1 1.298-1.446 1.465-2.779.5-4Z" style="opacity:1"/><path fill="#68728d" d="m108.5 52.5 2 3a31.867 31.867 0 0 1-3 7c-1.471-.88-2.304-2.214-2.5-4a8.43 8.43 0 0 0-.5 4h-3v-4c1.359-.507 2.359-1.507 3-3a6.846 6.846 0 0 0 4 1v-4Z" style="opacity:1"/><path fill="#787887" d="M111.5 64.5c-.904.709-1.237 1.709-1 3-1.302-2.607-1.136-5.273.5-8 .494 1.634.66 3.3.5 5Z" style="opacity:1"/><path fill="#f5f6f4" d="M166.5 59.5c17.883 29.313 18.55 58.98 2 89-3.974-1.121-7.64-2.954-11-5.5-1.641-1.129-2.641-2.629-3-4.5 11.312-23.813 10.645-47.147-2-70l14-9Z" style="opacity:1"/><path fill="#8a98b9" d="M72.5 57.5c1.558 2.792 2.891 5.792 4 9l-1 1a9.427 9.427 0 0 0-3-3 7.493 7.493 0 0 0-.5 5 36.131 36.131 0 0 1-7.5-7 24.93 24.93 0 0 0 8 1v-6Z" style="opacity:1"/><path fill="#929291" d="M100.5 66.5a24.939 24.939 0 0 1-7-.5c-.556-.383-.89-.883-1-1.5 2.448-.973 5.115-1.306 8-1v3Z" style="opacity:1"/><path fill="#7881a1" d="M122.5 58.5c.099 3.14 1.432 5.473 4 7-.311.978-.978 1.644-2 2a10.256 10.256 0 0 1-1.5-4l-2 2c-.275-2.558.225-4.892 1.5-7Z" style="opacity:1"/><path fill="#676667" d="M164.5 56.5c.901.79 1.568 1.79 2 3l-14 9-2-2c5.791-1.883 10.458-5.217 14-10Z" style="opacity:1"/><path fill="#45432b" d="M91.5 64.5h1c.11.617.444 1.117 1 1.5 2.31.497 4.643.663 7 .5a5.728 5.728 0 0 1 3-1v2c-3.871-.315-7.538.018-11 1a225.072 225.072 0 0 1-8 3c-2.704.17-4.37 1.503-5 4l-2-1c1.796-2.4 4.13-4.067 7-5 1.97-.662 3.97-1.328 6-2 .886-.825 1.219-1.825 1-3Z" style="opacity:1"/><path fill="#7b7b6a" d="M104.5 68.5c-.667 0-1-.333-1-1v-2c1.052-1.756 2.719-2.423 5-2v4c-1.599-.268-2.932.066-4 1Z" style="opacity:1"/><path fill="#7b7c6f" d="M81.5 65.5c3.12.108 6.454-.226 10-1 .219 1.175-.114 2.175-1 3-2.03.672-4.03 1.338-6 2v-4h-3Z" style="opacity:1"/><path fill="#f5f5f4" d="M43.5 71.5c-9.411 19.33-10.578 39.331-3.5 60a28.936 28.936 0 0 0 3.5 5v3a82.83 82.83 0 0 0-9 6.5c-1.544 1.187-3.211 1.52-5 1-5.907-9.836-9.574-20.336-11-31.5v-24c1.873-9.28 5.206-18.113 10-26.5 5.41 1.034 10.41 3.2 15 6.5Z" style="opacity:1"/><path fill="#93ace2" d="M107.5 42.5c8.705.853 16.705 3.686 24 8.5 26.478 19.755 34.811 45.588 25 77.5-4.653.501-8.986-.166-13-2-6.942-3.687-6.609-5.353 1-5a7.47 7.47 0 0 0-3-2c1.419-.951 3.085-1.284 5-1a12.93 12.93 0 0 0 5-.5c-2.15-1.411-4.484-2.245-7-2.5l-2-2c1.788.285 3.455-.048 5-1-1.944-1.301-3.944-2.301-6-3h11c-.931 4.508.236 8.508 3.5 12l1-1c.701-13.049.201-26.05-1.5-39a15.42 15.42 0 0 1-7-1 28.854 28.854 0 0 1-4 1.5c-.752.67-1.086 1.504-1 2.5h-4c-1.006-.438-1.006-1.104 0-2a42.258 42.258 0 0 0 7-5l-1-1a16.062 16.062 0 0 1-5 2c-2.198.091-2.531-.576-1-2 .131-.876-.202-1.543-1-2a32.367 32.367 0 0 1-4.5 3 2.429 2.429 0 0 1-.5-2 34.81 34.81 0 0 0 7-7c-1.29-.908-2.623-.741-4 .5a31.418 31.418 0 0 1-5 4.5c-.429-1.453-.596-3.12-.5-5-.965 1.76-2.132 2.094-3.5 1a59.024 59.024 0 0 1 5-9c-2.339.616-4.339 2.282-6 5-2.568-1.527-3.901-3.86-4-7 .219-1.175-.114-2.175-1-3a27.368 27.368 0 0 0-4 8 20.204 20.204 0 0 1-1.5-6l-3 5a77.73 77.73 0 0 0 0-13 218.094 218.094 0 0 1-2.5 6l-2-3-1-10Z" style="opacity:1"/><path fill="#212d4b" d="m133.5 75.5-2-2a31.418 31.418 0 0 0 5-4.5c1.377-1.241 2.71-1.408 4-.5a34.81 34.81 0 0 1-7 7Z" style="opacity:1"/><path fill="#19264c" d="M64.5 75.5c.172.992-.162 1.658-1 2a31.318 31.318 0 0 1-8-7c.502-1.021 1.168-1.188 2-.5a59.463 59.463 0 0 1 7 5.5Z" style="opacity:1"/><path fill="#bec45d" d="M84.5 71.5v5c-1.791.134-3.458-.2-5-1 .63-2.497 2.296-3.83 5-4Z" style="opacity:1"/><path fill="#373b3e" d="M68.5 71.5c.722-.418 1.222-1.084 1.5-2 1.011.837 2.178 1.17 3.5 1a122.842 122.842 0 0 0-10 11v-4c.838-.342 1.172-1.008 1-2 .876.13 1.543-.203 2-1-2.182-1.323-2.85-2.99-2-5a14.974 14.974 0 0 1 3.5 3c.399-.228.565-.562.5-1Z" style="opacity:1"/><path fill="#7f7b30" d="M103.5 67.5c0 .667.333 1 1 1 2.579.365 4.912.365 7 0 20.314 9.212 28.147 24.879 23.5 47a81.58 81.58 0 0 1-5 11c-.671.752-1.504 1.086-2.5 1l2-4c2.859-3.402 4.359-7.402 4.5-12 .817-5.516.651-10.85-.5-16-.425-4.85-2.425-8.85-6-12-2.243-3.915-5.243-7.249-9-10-.669 2.13-1.335 4.13-2 6 .475-2.582-.192-4.582-2-6v3h-30v-5a225.072 225.072 0 0 0 8-3c3.462-.982 7.129-1.315 11-1Z" style="opacity:1"/><path fill="#d5d751" d="M88.5 71.5c2.412.194 3.412 1.527 3 4a9.864 9.864 0 0 1-6-1c.84-1.235 1.84-2.235 3-3Z" style="opacity:1"/><path fill="#e1e75a" d="M114.5 73.5a31.12 31.12 0 0 0-2 2c-1.333-1.667-1.333-3.333 0-5 1.419.505 2.085 1.505 2 3Z" style="opacity:1"/><path fill="#dedf4b" d="M95.5 71.5c2.454-.18 4.621.487 6.5 2 2.97-2.95 5.47-2.618 7.5 1-5.667 1.333-11.333 1.333-17 0 1.27-.788 2.27-1.788 3-3Z" style="opacity:1"/><path fill="#dad56d" d="M92.5 68.5c3.657.474 3.824 1.807.5 4a8.434 8.434 0 0 1-.5-4Z" style="opacity:1"/><path fill="#6a682f" d="M77.5 74.5v6a44.293 44.293 0 0 1-2-3c-6.103 5.29-9.936 11.957-11.5 20a72.442 72.442 0 0 0-.5 12c-1.934-10.414.232-20.08 6.5-29 2.106-2.618 4.606-4.618 7.5-6Z" style="opacity:1"/><path fill="#e5e3de" d="M133.5 79.5c.588 2.563 1.588 4.896 3 7 1.602 3.74 2.602 7.74 3 12v16c-1.442 1.32-2.108 2.986-2 5-1.64 2.649-3.307 5.316-5 8-1.545.952-3.212 1.285-5 1v-1c.996.086 1.829-.248 2.5-1a81.58 81.58 0 0 0 5-11c4.647-22.121-3.186-37.788-23.5-47-.667 0-1-.333-1-1-.237-1.291.096-2.291 1-3 1.322.17 2.489-.163 3.5-1 .483.948.649 1.948.5 3 3.356.02 6.023 1.353 8 4 1.714-1.109 2.381-.442 2 2h3c.104 3.439 1.77 5.772 5 7Z" style="opacity:1"/><path fill="#272e45" d="M63.5 79.5v2a93.727 93.727 0 0 1-4 9 712.541 712.541 0 0 0-5-3.5l4-1c-.544-.717-1.21-1.217-2-1.5-3.307-1.298-5.307-3.298-6-6 3.58 1.918 7.246 3.084 11 3.5-5.195-3.428-4.528-4.262 2-2.5Z" style="opacity:1"/><path fill="#141f3a" d="M139.5 82.5c-.597-.235-.93-.735-1-1.5.556-1.011 1.222-1.844 2-2.5a16.062 16.062 0 0 0 5-2l1 1a42.258 42.258 0 0 1-7 5Z" style="opacity:1"/><path fill="#1b1912" d="M114.5 73.5c1.808 1.418 2.475 3.418 2 6-1.653.16-2.986.826-4 2-1.599-.268-2.932.066-4 1h-1c-6.987 2.506-13.987 2.506-21 0-.709-.904-1.709-1.237-3-1-1.88-.841-3.88-1.175-6-1v-6l2 1c1.178 1.499 2.845 2.499 5 3a104.73 104.73 0 0 0 25 .5l-15-1c5.516-.173 10.849-.673 16-1.5h4v-3Z" style="opacity:1"/><path fill="#444127" d="M79.5 75.5c1.542.8 3.209 1.134 5 1h26c-5.151.827-10.484 1.327-16 1.5l15 1a104.73 104.73 0 0 1-25-.5c-2.155-.501-3.822-1.501-5-3Z" style="opacity:1"/><path fill="#565b68" d="M139.5 76.5c-1.531 1.424-1.198 2.091 1 2-.778.656-1.444 1.489-2 2.5.07.765.403 1.265 1 1.5-1.006.896-1.006 1.562 0 2-1.066 1.192-1.899.859-2.5-1a4.934 4.934 0 0 0-.5 3c-1.412-2.104-2.412-4.437-3-7 2.245-.596 4.245-1.596 6-3Z" style="opacity:1"/><path fill="#d5d842" d="M127.5 83.5c3.575 3.15 5.575 7.15 6 12a50.562 50.562 0 0 1-6-12Z" style="opacity:1"/><path fill="#928e3c" d="M86.5 82.5c7.013 2.506 14.013 2.506 21 0-1.837 2.668-3.004 5.668-3.5 9-1.729-.474-2.895-1.474-3.5-3-.333-1-1-1.667-2-2-1.1-1.098-2.434-1.265-4-.5-.49 2.49-1.823 4.324-4 5.5-1.231-1.15-1.231-2.317 0-3.5L88 85.5c-1.352 2.094-1.852 4.427-1.5 7-.796 3.361-1.463 3.528-2 .5a84.778 84.778 0 0 1 2-10.5Z" style="opacity:1"/><path fill="#f7f718" d="M127.5 83.5a50.562 50.562 0 0 0 6 12c1.151 5.15 1.317 10.484.5 16-.141 4.598-1.641 8.598-4.5 12-1.621.287-2.621 1.287-3 3a21.127 21.127 0 0 1-9 1c.295-2.235-.039-4.235-1-6a185.422 185.422 0 0 0-1-11c.284-1.915-.049-3.581-1-5a292.335 292.335 0 0 0-2-24c1.014-1.174 2.347-1.84 4-2 .665-1.87 1.331-3.87 2-6 3.757 2.751 6.757 6.085 9 10Z" style="opacity:1"/><path fill="#b3ae39" d="M77.5 80.5c2.12-.175 4.12.159 6 1 .32 4.863-.014 9.53-1 14v-13c-2.053.098-3.72-.569-5-2Z" style="opacity:1"/><path fill="#848484" d="M179.5 83.5c1.54 2.338 2.206 5.005 2 8-1.268-2.405-1.935-5.072-2-8Z" style="opacity:1"/><path fill="#242f50" d="M52.5 88.5c1.29 1.435 2.956 2.435 5 3-.825.886-1.825 1.219-3 1a17.418 17.418 0 0 1-8-3.5 18.436 18.436 0 0 1 6-.5Z" style="opacity:1"/><path fill="#93abe3" d="M72.5 57.5v6a24.93 24.93 0 0 1-8-1c-.802-1.385-1.469-1.218-2 .5a39.963 39.963 0 0 1 6 8.5c.065.438-.101.772-.5 1a14.974 14.974 0 0 0-3.5-3c-.85 2.01-.182 3.677 2 5-.457.797-1.124 1.13-2 1a59.463 59.463 0 0 0-7-5.5c-.832-.688-1.498-.521-2 .5a31.318 31.318 0 0 0 8 7v2c-6.528-1.762-7.195-.928-2 2.5-3.754-.416-7.42-1.582-11-3.5.693 2.702 2.693 4.702 6 6-.709.904-1.709 1.237-3 1 .237 1.291-.096 2.291-1 3a18.436 18.436 0 0 0-6 .5 17.418 17.418 0 0 0 8 3.5c1.051.722 1.718 1.722 2 3-4.992.08-4.992 1.08 0 3a74.203 74.203 0 0 1-12 1.5 21.339 21.339 0 0 0 9 1.5l2 2c-6.508 1.242-6.508 1.908 0 2-.6 1.4-1.6 2.4-3 3a18.347 18.347 0 0 0-9 2 31.117 31.117 0 0 0 11 1c.667 0 1 .333 1 1-3.593 1.669-3.593 2.836 0 3.5a97.368 97.368 0 0 1-10 5.5l2.5 1a92.677 92.677 0 0 0 8.5-3c.992-.172 1.658.162 2 1a19.223 19.223 0 0 0-5 3h7a647.722 647.722 0 0 0-6 6h-12c-2.178-3.981-3.678-8.315-4.5-13-2.096-15.09.237-29.423 7-43 9.567-16.09 23.4-26.09 41.5-30a379.111 379.111 0 0 0-1.5 17 59.887 59.887 0 0 1-4.5-10c-.844 3.512-.178 6.845 2 10h-4c.928 1.268 1.095 2.601.5 4l-6-10a4.932 4.932 0 0 0-.5 3Z" style="opacity:1"/><path fill="#5e6473" d="M56.5 84.5c.79.283 1.456.783 2 1.5l-4 1a712.541 712.541 0 0 1 5 3.5 192.7 192.7 0 0 1-2 10c.285-1.915-.049-3.581-1-5-.282-1.278-.949-2.278-2-3 1.175.219 2.175-.114 3-1-2.044-.565-3.71-1.565-5-3 .904-.709 1.237-1.709 1-3 1.291.237 2.291-.096 3-1Z" style="opacity:1"/><path fill="#eaeae3" d="M81.5 65.5h3v4c-2.87.933-5.204 2.6-7 5-2.894 1.382-5.394 3.382-7.5 6-6.268 8.92-8.434 18.586-6.5 29a32.438 32.438 0 0 0 .5 8 114.578 114.578 0 0 0 5.5 11h-4v-3h-3c.27-1.88-.396-3.213-2-4-.065-2.928-.732-5.595-2-8 .237-1.291-.096-2.291-1-3v-10a192.7 192.7 0 0 0 2-10 93.727 93.727 0 0 0 4-9c3.1-3.856 6.433-7.523 10-11a37.073 37.073 0 0 1 8-5Z" style="opacity:1"/><path fill="#797028" d="M108.5 82.5c1.068-.934 2.401-1.268 4-1 .996 7.97 1.663 15.97 2 24 .219 1.175-.114 2.175-1 3l-1-1a11.25 11.25 0 0 0 1-3.5c-1.36-2.27-2.027-4.77-2-7.5-.053-2.64-.72-5.14-2-7.5a54.49 54.49 0 0 1 1-4.5c-.247-1.213-.914-1.88-2-2Z" style="opacity:1"/><path fill="#92882c" d="M111.5 96.5c-.027 2.73.64 5.23 2 7.5a11.25 11.25 0 0 1-1 3.5l1 1c.886-.825 1.219-1.825 1-3 .951 1.419 1.284 3.085 1 5-.838.342-1.172 1.008-1 2-.768-.763-1.268-1.763-1.5-3a50.166 50.166 0 0 0-4.5 9c.423-2.281-.244-3.948-2-5 .841-2.012 2.341-3.345 4.5-4 .781-1.444.614-2.777-.5-4-3.635-1.095-3.802-2.429-.5-4a4.934 4.934 0 0 0 .5-3 6.544 6.544 0 0 0-3-3c-1.276-.886-1.276-1.886 0-3 1.021 1.688 2.355 3.021 4 4Z" style="opacity:1"/><path fill="#eee165" d="M107.5 95.5a6.544 6.544 0 0 1 3 3 12.935 12.935 0 0 1-5-.5c.881-.708 1.547-1.542 2-2.5Z" style="opacity:1"/><path fill="#7988a9" d="M143.5 90.5c.321 1.548 1.321 2.215 3 2v4h5v3h-3c.418-.722 1.084-1.222 2-1.5a52.204 52.204 0 0 1-10-1.5 48.145 48.145 0 0 1 5-2.5 14.729 14.729 0 0 1-5-1.5c.505-1.418 1.505-2.085 3-2Z" style="opacity:1"/><path fill="#b4b03d" d="M107.5 82.5h1c1.086.12 1.753.787 2 2a54.436 54.436 0 0 0-1 4.5c1.28 2.36 1.947 4.86 2 7.5-1.645-.979-2.979-2.312-4-4-1.276 1.114-1.276 2.114 0 3-.453.958-1.119 1.792-2 2.5 1.634.493 3.301.66 5 .5a4.934 4.934 0 0 1-.5 3c-3.302 1.571-3.135 2.905.5 4 1.114 1.223 1.281 2.556.5 4-2.159.655-3.659 1.988-4.5 4h-1c-.624-.417-.957-1.084-1-2 3.131-4.575 1.798-6.908-4-7a20.79 20.79 0 0 1-1 2.5 11.333 11.333 0 0 1 1.5 3.5c1.342-1.402 2.176-1.069 2.5 1-.247 1.213-.914 1.88-2 2 0-1.333-.667-2-2-2-.635-2.295-1.969-3.961-4-5-.948-1.478-2.28-2.478-4-3 .221-1.235.888-2.235 2-3 2.699-1.23 5.365-1.23 8 0 4.212.531 4.879-.469 2-3-2.236-.89-4.236-2.222-6-4a18.338 18.338 0 0 0-6 4 3.646 3.646 0 0 1-1.5-1c-.772 1.35-1.94 2.182-3.5 2.5 2.552 1.516 2.218 2.349-1 2.5-.251-2.998.749-5.498 3-7.5-.336-1.03-1.003-1.53-2-1.5-.352-2.573.148-4.906 1.5-7l2.5 2.5c-1.231 1.183-1.231 2.35 0 3.5 2.177-1.176 3.51-3.01 4-5.5 1.566-.765 2.9-.598 4 .5-1.603-.188-2.937.312-4 1.5.482 1.008.648 2.175.5 3.5 1.05 1.017 2.216 1.184 3.5.5 1.333-1 1.333-2 0-3a2.428 2.428 0 0 1 2-.5c.605 1.526 1.771 2.526 3.5 3 .496-3.332 1.663-6.332 3.5-9Z" style="opacity:1"/><path fill="#4d4908" d="M103.5 97.5c2.879 2.531 2.212 3.531-2 3 .282-1.278.949-2.278 2-3Z" style="opacity:1"/><path fill="#cbcd47" d="M98.5 86.5c1 .333 1.667 1 2 2a2.428 2.428 0 0 0-2 .5c1.333 1 1.333 2 0 3-1.284.684-2.45.517-3.5-.5.148-1.325-.018-2.492-.5-3.5 1.063-1.188 2.397-1.688 4-1.5Z" style="opacity:1"/><path fill="#1b2439" d="M56.5 95.5c.951 1.419 1.285 3.085 1 5-1.208.734-2.541 1.067-4 1a21.339 21.339 0 0 1-9-1.5c4.04-.174 8.04-.674 12-1.5-4.992-1.92-4.992-2.92 0-3Z" style="opacity:1"/><path fill="#8a8f9a" d="M139.5 98.5a4.932 4.932 0 0 1 3 .5 45.948 45.948 0 0 0-3 12.5v-13Z" style="opacity:1"/><path fill="#93a9dc" d="M143.5 84.5c3.045-.158 5.879.508 8.5 2 .684 1.979.184 3.646-1.5 5 2.887 4.766 3.554 9.766 2 15h-7c-1.478.262-2.811-.071-4-1a48.165 48.165 0 0 1 5-2.5 14.72 14.72 0 0 1-5-1.5c2.108-1.444 4.441-2.11 7-2h3v-3h-5v-4c-1.679.215-2.679-.452-3-2a38.588 38.588 0 0 1 7-3.5 48.979 48.979 0 0 0-11 1c1.231-1.405 2.564-2.571 4-3.5Z" style="opacity:1"/><path fill="#2d2d2d" d="M17.5 90.5c.667 0 1 .333 1 1v24c.295 2.235-.039 4.235-1 6a124.922 124.922 0 0 1 0-31Z" style="opacity:1"/><path fill="#1b2040" d="M55.5 103.5c1.333.667 1.333 1.333 0 2-6.508-.092-6.508-.758 0-2Z" style="opacity:1"/><path fill="#e7e73f" d="M77.5 80.5c1.28 1.431 2.947 2.098 5 2v13a656.318 656.318 0 0 1-1 17c-.988 5.14-1.321 10.474-1 16h-9a27.549 27.549 0 0 1-5-11 46.753 46.753 0 0 1-3-8 72.442 72.442 0 0 1 .5-12c1.564-8.043 5.397-14.71 11.5-20a44.293 44.293 0 0 0 2 3Z" style="opacity:1"/><path fill="#f9f90c" d="M66.5 117.5c-1.754-9.124-1.254-18.124 1.5-27a34.692 34.692 0 0 1 6.5-7.5c2.251.207 4.585.374 7 .5a6320.522 6320.522 0 0 0-2 44c-3.037.052-5.704-.948-8-3a74.268 74.268 0 0 1-5-7Z" style="opacity:1"/><path fill="#96b2f8" d="M152.5 109.5v-3c1.554-5.234.887-10.234-2-15 1.684-1.354 2.184-3.021 1.5-5-2.621-1.492-5.455-2.158-8.5-2-.086-.996.248-1.83 1-2.5a28.854 28.854 0 0 0 4-1.5 15.42 15.42 0 0 0 7 1 211.661 211.661 0 0 1 1.5 39l-1 1c-3.264-3.492-4.431-7.492-3.5-12Z" style="opacity:1"/><path fill="#565963" d="M57.5 100.5v10l-2 2c0-.667-.333-1-1-1 .215-1.679-.452-2.679-2-3 1.4-.6 2.4-1.6 3-3 1.333-.667 1.333-1.333 0-2l-2-2c1.459.067 2.792-.266 4-1Z" style="opacity:1"/><path fill="#88802b" d="M105.5 113.5c-.787 1.604-2.12 2.271-4 2v-2c1.086-.12 1.753-.787 2-2-.324-2.069-1.158-2.402-2.5-1a11.333 11.333 0 0 0-1.5-3.5c.43-.92.764-1.753 1-2.5 5.798.092 7.131 2.425 4 7 .043.916.376 1.583 1 2Z" style="opacity:1"/><path fill="#272f44" d="M139.5 84.5h4c-1.436.929-2.769 2.095-4 3.5a48.979 48.979 0 0 1 11-1 38.588 38.588 0 0 0-7 3.5c-1.495-.085-2.495.582-3 2a14.729 14.729 0 0 0 5 1.5 48.145 48.145 0 0 0-5 2.5 52.204 52.204 0 0 0 10 1.5c-.916.278-1.582.778-2 1.5-2.559-.11-4.892.556-7 2a14.72 14.72 0 0 0 5 1.5 48.165 48.165 0 0 0-5 2.5c1.189.929 2.522 1.262 4 1 .418.722 1.084 1.222 2 1.5-2.208.191-4.208.691-6 1.5 2.056.699 4.056 1.699 6 3-1.545.952-3.212 1.285-5 1 .065-.438-.101-.772-.5-1-.417 1.256-1.25 1.923-2.5 2v-3a45.948 45.948 0 0 1 3-12.5 4.932 4.932 0 0 0-3-.5c-.398-4.26-1.398-8.26-3-12a4.934 4.934 0 0 1 .5-3c.601 1.859 1.434 2.192 2.5 1Z" style="opacity:1"/><path fill="#754016" d="M91.5 103.5c1.72.522 3.052 1.522 4 3-1.548.321-2.215 1.321-2 3-1.208-.734-2.541-1.067-4-1-.423-2.281.244-3.948 2-5Z" style="opacity:1"/><path fill="#4f6291" d="M145.5 106.5h7v3h-11c1.792-.809 3.792-1.309 6-1.5-.916-.278-1.582-.778-2-1.5Z" style="opacity:1"/><path fill="#2e3a60" d="M52.5 108.5c1.548.321 2.215 1.321 2 3a31.117 31.117 0 0 1-11-1 18.347 18.347 0 0 1 9-2Z" style="opacity:1"/><path fill="#a6983b" d="M103.5 97.5c-1.051.722-1.718 1.722-2 3-2.635-1.23-5.301-1.23-8 0-1.112.765-1.779 1.765-2 3-1.756 1.052-2.423 2.719-2 5 1.459-.067 2.792.266 4 1 .95 2.708.95 5.374 0 8-1.44-1.452-3.106-2.452-5-3-1.308-3.903-2.808-3.903-4.5 0a39.818 39.818 0 0 0-.5-11c.247-1.213.914-1.88 2-2 3.218-.151 3.552-.984 1-2.5 1.56-.318 2.728-1.15 3.5-2.5.414.457.914.79 1.5 1a18.338 18.338 0 0 1 6-4c1.764 1.778 3.764 3.11 6 4Z" style="opacity:1"/><path fill="#e5df5e" d="M95.5 95.5c1.933.229 3.6 1.062 5 2.5a12.5 12.5 0 0 1-7 0c.88-.708 1.547-1.542 2-2.5Z" style="opacity:1"/><path fill="#73681b" d="M83.5 81.5c1.291-.237 2.291.096 3 1a84.778 84.778 0 0 0-2 10.5c.537 3.028 1.204 2.861 2-.5.997-.03 1.664.47 2 1.5-2.251 2.002-3.251 4.502-3 7.5-1.086.12-1.753.787-2 2 .676 3.637.843 7.304.5 11 1.692-3.903 3.192-3.903 4.5 0-.838.342-1.172 1.008-1 2-1.208-.734-2.541-1.067-4-1 .268 1.599-.066 2.932-1 4-.968-2.107-1.302-4.441-1-7 .407-5.661.74-11.328 1-17 .986-4.47 1.32-9.137 1-14Z" style="opacity:1"/><path fill="#2a334c" d="M57.5 110.5c.904.709 1.237 1.709 1 3-.061 2.092-1.061 3.592-3 4.5.556.383.89.883 1 1.5a92.677 92.677 0 0 1-8.5 3l-2.5-1a97.368 97.368 0 0 0 10-5.5c-3.593-.664-3.593-1.831 0-3.5l2-2Z" style="opacity:1"/><path fill="#5b626a" d="m142.5 113.5 2 2c.282 1.278.949 2.278 2 3-1.915-.284-3.581.049-5 1-.958-.453-1.792-1.119-2.5-2-.278.916-.778 1.582-1.5 2-.108-2.014.558-3.68 2-5 1.25-.077 2.083-.744 2.5-2 .399.228.565.562.5 1Z" style="opacity:1"/><path fill="#75693a" d="M63.5 109.5a46.753 46.753 0 0 0 3 8 27.549 27.549 0 0 0 5 11h-2a114.578 114.578 0 0 1-5.5-11 32.438 32.438 0 0 1-.5-8Z" style="opacity:1"/><path fill="#1a284c" d="M144.5 115.5c2.516.255 4.85 1.089 7 2.5a12.93 12.93 0 0 1-5 .5c-1.051-.722-1.718-1.722-2-3Z" style="opacity:1"/><path fill="#bfb554" d="M87.5 116.5c1.591 3.461 2.258 7.128 2 11-.667 0-1 .333-1 1-6.166-.076-6.166-1.243 0-3.5a26.596 26.596 0 0 0-2-3.5c-3.48 5.521-4.814 4.855-4-2 .934-1.068 1.268-2.401 1-4 1.459-.067 2.792.266 4 1Z" style="opacity:1"/><path fill="#cf1a21" d="M99.5 111.5c1.333 0 2 .667 2 2v2c.679 2.314 2.012 2.647 4 1a21.127 21.127 0 0 1 1 9c-.968-2.107-1.302-4.441-1-7-1.644-.214-3.144.12-4.5 1-.122-4.977-1.955-5.977-5.5-3a13.118 13.118 0 0 1 1-7c1.018.693 2.018 1.359 3 2Z" style="opacity:1"/><path fill="#5d580c" d="M115.5 110.5c.442 3.654.776 7.321 1 11a4.934 4.934 0 0 1-.5 3c-.05-2.244-.883-3.911-2.5-5a21.435 21.435 0 0 1 1-7c-.172-.992.162-1.658 1-2Z" style="opacity:1"/><path fill="#555a5b" d="M58.5 113.5c1.268 2.405 1.935 5.072 2 8l-2-1c-.342-.838-1.008-1.172-2-1-.11-.617-.444-1.117-1-1.5 1.939-.908 2.939-2.408 3-4.5Z" style="opacity:1"/><path fill="#c6c84d" d="M114.5 112.5a21.435 21.435 0 0 0-1 7 2.428 2.428 0 0 1-.5 2c-1.429.03-2.929-.303-4.5-1v-2a50.166 50.166 0 0 1 4.5-9c.232 1.237.732 2.237 1.5 3Z" style="opacity:1"/><path fill="#2c3249" d="M141.5 119.5a7.47 7.47 0 0 1 3 2c-7.609-.353-7.942 1.313-1 5 0 .667-.333 1-1 1a53.508 53.508 0 0 0-4.5-1c-1.699-.113-2.866.553-3.5 2v1h-7v-1c1.788.285 3.455-.048 5-1 1.693-2.684 3.36-5.351 5-8 .722-.418 1.222-1.084 1.5-2 .708.881 1.542 1.547 2.5 2Z" style="opacity:1"/><path fill="#9b8942" d="M113.5 119.5c1.617 1.089 2.45 2.756 2.5 5a4.934 4.934 0 0 0 .5-3c.961 1.765 1.295 3.765 1 6a12.93 12.93 0 0 1-5-.5c.88-1.356 1.214-2.856 1-4.5-1.915.284-3.581-.049-5-1v-1c1.571.697 3.071 1.03 4.5 1a2.428 2.428 0 0 0 .5-2Z" style="opacity:1"/><path fill="#828221" d="M81.5 112.5c-.302 2.559.032 4.893 1 7-.814 6.855.52 7.521 4 2a26.596 26.596 0 0 1 2 3.5c-6.166 2.257-6.166 3.424 0 3.5-2.526 1.157-5.193 1.157-8 0-.321-5.526.012-10.86 1-16Z" style="opacity:1"/><path fill="#2c304b" d="m58.5 120.5 2 1c1.604.787 2.27 2.12 2 4h3v3h6v1h-8c.082-1.752-.75-2.752-2.5-3-1.95.207-3.116 1.207-3.5 3h-3a647.722 647.722 0 0 1 6-6h-7a19.223 19.223 0 0 1 5-3Z" style="opacity:1"/><path fill="#7a4d2d" d="M108.5 121.5c1.419.951 3.085 1.284 5 1 .214 1.644-.12 3.144-1 4.5a12.93 12.93 0 0 0 5 .5v1a19.22 19.22 0 0 1-6 1v-5h-4c-.237-1.291.096-2.291 1-3Z" style="opacity:1"/><path fill="#952418" d="M95.5 106.5c2.031 1.039 3.365 2.705 4 5a184.223 184.223 0 0 1-3-2 13.118 13.118 0 0 0-1 7v2c-1.322-.17-2.489.163-3.5 1-.03 4.958-.862 9.624-2.5 14v-6c.258-3.872-.409-7.539-2-11-.172-.992.162-1.658 1-2 1.894.548 3.56 1.548 5 3 .95-2.626.95-5.292 0-8-.215-1.679.452-2.679 2-3Z" style="opacity:1"/><path fill="#d9d763" d="m129.5 123.5-2 4v1h-10v-1a21.127 21.127 0 0 0 9-1c.379-1.713 1.379-2.713 3-3Z" style="opacity:1"/><path fill="#9d9fcc" d="M142.5 127.5c-2.448.973-5.115 1.306-8 1 .634-1.447 1.801-2.113 3.5-2 1.533.273 3.033.606 4.5 1Z" style="opacity:1"/><path fill="#646998" d="M63.5 129.5h-6c.384-1.793 1.55-2.793 3.5-3 1.75.248 2.582 1.248 2.5 3Z" style="opacity:1"/><path fill="#3a488d" d="M143.5 126.5c4.014 1.834 8.347 2.501 13 2 0 .667-.333 1-1 1h-21v-1c2.885.306 5.552-.027 8-1 .667 0 1-.333 1-1Z" style="opacity:1"/><path fill="#413b22" d="M89.5 127.5v3h-8c-3.125-.979-6.458-1.313-10-1v-1h9c2.807 1.157 5.474 1.157 8 0 0-.667.333-1 1-1Z" style="opacity:1"/><path fill="#363720" d="M117.5 128.5h10v1c-3.542-.313-6.875.021-10 1h-6v-1a19.22 19.22 0 0 0 6-1Z" style="opacity:1"/><path fill="#0d1f7e" d="M127.5 130.5v-1h28c.38 2.198-.287 3.865-2 5v-4h-26Z" style="opacity:1"/><path fill="#132072" d="M42.5 129.5h29v1c-8.85-.326-17.516.007-26 1-.624.417-.957 1.084-1 2 .614 2.256 1.614 4.256 3 6-1.562-.233-2.895-.9-4-2v-1a51.648 51.648 0 0 1-1-7Z" style="opacity:1"/><path fill="#142bc0" d="M71.5 130.5h8v4h-34v-3c8.484-.993 17.15-1.326 26-1Z" style="opacity:1"/><path fill="#dde1e4" d="M117.5 134.5v4a31.895 31.895 0 0 1-5-4.5c.532-2.02 1.865-2.853 4-2.5-.237 1.291.096 2.291 1 3Z" style="opacity:1"/><path fill="#142bc6" d="M131.5 130.5h22v4h-26v-3c1.599.268 2.932-.066 4-1Z" style="opacity:1"/><path fill="#2a345c" d="M71.5 130.5v-1c3.542-.313 6.875.021 10 1a215.518 215.518 0 0 0 0 21h-2v-21h-8Z" style="opacity:1"/><path fill="#aba4a9" d="M81.5 130.5h8v3c-.667 0-1 .333-1 1a818.503 818.503 0 0 0-4 11 11.99 11.99 0 0 1 1 6h-4a215.518 215.518 0 0 1 0-21Z" style="opacity:1"/><path fill="#2a3168" d="M127.5 129.5v1c-2.885-.306-5.552.027-8 1-.977 2.787-1.31 5.787-1 9h-1c-1.006-.438-1.006-1.104 0-2v-8c3.125-.979 6.458-1.313 10-1Z" style="opacity:1"/><path fill="#1a1b34" d="M43.5 137.5c1.105 1.1 2.438 1.767 4 2v4l-2-2-2-2v-2Z" style="opacity:1"/><path fill="#06199b" d="M45.5 131.5v3h34v7h-29a5.727 5.727 0 0 0-3-1v-1c-1.386-1.744-2.386-3.744-3-6 .043-.916.376-1.583 1-2Z" style="opacity:1"/><path fill="#152bc0" d="M50.5 136.5h27v3c-8.673.166-17.34 0-26-.5-2.12-.342-2.453-1.175-1-2.5Z" style="opacity:1"/><path fill="#1d36bf" d="M120.5 141.5h25v3a163.67 163.67 0 0 1-25-1v-2Z" style="opacity:1"/><path fill="#1f277d" d="M47.5 140.5a5.727 5.727 0 0 1 3 1c.262 2.064 1.429 3.397 3.5 4a8.435 8.435 0 0 1 .5 4 49.49 49.49 0 0 0-7-6v-3Z" style="opacity:1"/><path fill="#252843" d="M47.5 143.5a49.49 49.49 0 0 1 7 6v1a29.944 29.944 0 0 1 5 5 6.845 6.845 0 0 0 4 1v3l-6-3c-4.069-3.823-7.402-8.156-10-13Z" style="opacity:1"/><path fill="#f5061a" d="M106.5 125.5c.321 1.548 1.321 2.215 3 2a105.598 105.598 0 0 1-3.5 24c-1.331 2.496-3.164 4.496-5.5 6-.897 1.098-1.73 1.098-2.5 0a14.729 14.729 0 0 0-1.5-5l-2 3-2-7c-1.962 1.354-2.962.687-3-2 .993-9.621 2.993-18.954 6-28v-2c3.545-2.977 5.378-1.977 5.5 3 1.356-.88 2.856-1.214 4.5-1-.302 2.559.032 4.893 1 7Z" style="opacity:1"/><path fill="#696969" d="M154.5 138.5c.359 1.871 1.359 3.371 3 4.5 3.36 2.546 7.026 4.379 11 5.5-.432 1.21-1.099 2.21-2 3a92.12 92.12 0 0 0-13-9 185.977 185.977 0 0 1-3 2c-.073-1.527.594-2.527 2-3l2-3Z" style="opacity:1"/><path fill="#8e8687" d="M111.5 130.5h6v4c-.904-.709-1.237-1.709-1-3-2.135-.353-3.468.48-4 2.5a31.895 31.895 0 0 0 5 4.5c-1.006.896-1.006 1.562 0 2a25.14 25.14 0 0 1-4 4.5l4.5 4.5c.495-1.973.662-3.973.5-6 .973 2.448 1.306 5.115 1 8a40.914 40.914 0 0 0-9 .5 146.475 146.475 0 0 1 10 10.5c0 .667-.333 1-1 1a55.428 55.428 0 0 0-11-10c.36-7.747 1.36-15.414 3-23Z" style="opacity:1"/><path fill="#e0d8de" d="M111.5 136.5c4.921 1.854 4.921 2.854 0 3v-3Z" style="opacity:1"/><path fill="#091d95" d="M127.5 130.5h4c-1.068.934-2.401 1.268-4 1v3h26c-.801 1.542-1.134 3.208-1 5l-3 1.5c-.988 2.167-2.321 4-4 5.5h-25v-3a163.67 163.67 0 0 0 25 1v-3h-25l-2-1c-.31-3.213.023-6.213 1-9 2.448-.973 5.115-1.306 8-1Z" style="opacity:1"/><path fill="#152bbb" d="M119.5 131.5h6v5c8.252.316 16.419-.018 24.5-1a8.43 8.43 0 0 1 .5 4h-27v-5h-4v-3Z" style="opacity:1"/><path fill="#171c43" d="M152.5 139.5v2c-1.406.473-2.073 1.473-2 3-3.873 5.471-8.54 10.304-14 14.5a17.341 17.341 0 0 1-7 3.5h-2l3-2c1.729-.736 2.729-2.07 3-4 4.136-1.128 7.469-3.461 10-7l2-3c1.679-1.5 3.012-3.333 4-5.5l3-1.5Z" style="opacity:1"/><path fill="#d7dce6" d="M117.5 140.5h1v3a18.453 18.453 0 0 1-.5 6l-4.5-4.5a25.14 25.14 0 0 0 4-4.5Z" style="opacity:1"/><path fill="#e3e1e4" d="M110.5 146.5c8.262 3.273 7.929 4.607-1 4-.067-1.459.266-2.792 1-4Z" style="opacity:1"/><path fill="#1c34b0" d="M50.5 141.5h29v10h-20a20.691 20.691 0 0 1-5-1v-1a8.435 8.435 0 0 0-.5-4c-2.071-.603-3.238-1.936-3.5-4Z" style="opacity:1"/><path fill="#9e4245" d="M88.5 134.5a67.21 67.21 0 0 0-.5 18c2.022 1.893 3.188 4.227 3.5 7a6.544 6.544 0 0 1-3-3c0-.667-.333-1-1-1-.16-1.653-.826-2.986-2-4a11.99 11.99 0 0 0-1-6 818.503 818.503 0 0 1 4-11Z" style="opacity:1"/><path fill="#e01022" d="M95.5 118.5c-3.007 9.046-5.007 18.379-6 28 .038 2.687 1.038 3.354 3 2l2 7 2-3a14.729 14.729 0 0 1 1.5 5c.77 1.098 1.603 1.098 2.5 0-.39 3.19-1.724 5.857-4 8-.992-2.307-2.325-4.307-4-6h-1c-.312-2.773-1.478-5.107-3.5-7a67.21 67.21 0 0 1 .5-18c0-.667.333-1 1-1 1.638-4.376 2.47-9.042 2.5-14 1.011-.837 2.178-1.17 3.5-1Z" style="opacity:1"/><path fill="#253eb5" d="M120.5 146.5h25l-2 3c-2.963.453-5.296 1.953-7 4.5a341.728 341.728 0 0 1-15 1.5 104.618 104.618 0 0 1-1-9Z" style="opacity:1"/><path fill="#2e3a8a" d="m118.5 140.5 2 1v5c.204 3.018.537 6.018 1 9a341.728 341.728 0 0 0 15-1.5c1.704-2.547 4.037-4.047 7-4.5-2.531 3.539-5.864 5.872-10 7h-12v4h9l-3 2h-7a185.422 185.422 0 0 0-1-11c.306-2.885-.027-5.552-1-8v-3Z" style="opacity:1"/><path fill="#f4edec" d="M80.5 151.5h5c1.174 1.014 1.84 2.347 2 4a400.24 400.24 0 0 0-6.5 7 60.94 60.94 0 0 1-.5-11Z" style="opacity:1"/><path fill="#a62726" d="M105.5 113.5h1c1.756 1.052 2.423 2.719 2 5v3c-.904.709-1.237 1.709-1 3h4v6a139.252 139.252 0 0 0-3 23c-.838.342-1.172 1.008-1 2a13.797 13.797 0 0 0-4 4c-1.406.473-2.073 1.473-2 3-1.78 1.49-2.447 3.49-2 6l-4-1c-2.484-2.045-3.484-4.712-3-8 1.675 1.693 3.008 3.693 4 6 2.276-2.143 3.61-4.81 4-8 2.336-1.504 4.169-3.504 5.5-6a105.598 105.598 0 0 0 3.5-24c-1.679.215-2.679-.452-3-2a21.127 21.127 0 0 0-1-9c-1.988 1.647-3.321 1.314-4-1 1.88.271 3.213-.396 4-2Z" style="opacity:1"/><path fill="#ebefee" d="M119.5 151.5c.442 3.654.776 7.321 1 11a146.475 146.475 0 0 0-10-10.5 40.914 40.914 0 0 1 9-.5Z" style="opacity:1"/><path fill="#3c4ca5" d="M54.5 150.5a20.69 20.69 0 0 0 5 1c.957 2.668 2.957 4.168 6 4.5a60.93 60.93 0 0 0 11 .5v-5h3v4a1515.633 1515.633 0 0 0-4.5 7c-3.603-1.688-7.436-2.688-11.5-3v-3a6.845 6.845 0 0 1-4-1 29.944 29.944 0 0 0-5-5Z" style="opacity:1"/><path fill="#3047bc" d="M59.5 151.5h17v5a60.93 60.93 0 0 1-11-.5c-3.043-.332-5.043-1.832-6-4.5Z" style="opacity:1"/><path fill="#e4e4e4" d="m45.5 141.5 2 2c2.598 4.844 5.931 9.177 10 13-.992-.172-1.658.162-2 1a71.888 71.888 0 0 0-7 9c-.838.342-1.172 1.008-1 2-6.577-4.621-11.91-10.455-16-17.5 3.813-4.408 8.48-7.575 14-9.5Z" style="opacity:1"/><path fill="#1e1d1d" d="M45.5 147.5c5.544 1.788 6.211 4.621 2 8.5-1.867.711-3.367.211-4.5-1.5a13.923 13.923 0 0 1-4 3c-1.23-.775-1.563-1.775-1-3a157.395 157.395 0 0 1 7.5-7Z" style="opacity:1"/><path fill="#8d8d8d" d="M45.5 151.5c1.837.139 2.17.806 1 2-.797-.457-1.13-1.124-1-2Z" style="opacity:1"/><path fill="#eeeeed" d="M166.5 151.5a46.493 46.493 0 0 1-7 9l-2-1c-3.826-.297-6.826-2.13-9-5.5a4.934 4.934 0 0 0-3-.5 4.934 4.934 0 0 0 .5 3 25.122 25.122 0 0 1 7.5 7l1 2c-6.739 7.723-15.072 13.057-25 16-.793-2.418-2.126-4.418-4-6a24.558 24.558 0 0 0-3-6l-1-2c3.04-1.18 5.706-2.847 8-5a17.341 17.341 0 0 0 7-3.5c5.46-4.196 10.127-9.029 14-14.5.982-.641 1.982-1.307 3-2a92.12 92.12 0 0 1 13 9Z" style="opacity:1"/><path fill="#4b5abc" d="M133.5 156.5c-.271 1.93-1.271 3.264-3 4h-9v-4h12Z" style="opacity:1"/><path fill="#202021" d="M157.5 159.5c-.333 2.333-1.667 3.667-4 4a25.122 25.122 0 0 0-7.5-7 4.934 4.934 0 0 1-.5-3 4.934 4.934 0 0 1 3 .5c2.174 3.37 5.174 5.203 9 5.5Z" style="opacity:1"/><path fill="#f0efeb" d="M88.5 156.5a6.544 6.544 0 0 0 3 3 15.42 15.42 0 0 1-1 7c-1.189.929-2.522 1.262-4 1a20.691 20.691 0 0 1-5-1c1.562-3.892 3.895-7.225 7-10Z" style="opacity:1"/><path fill="#989997" d="M55.5 157.5c.342-.838 1.008-1.172 2-1l6 3v1c-2.106 1.283-4.44 2.116-7 2.5 1.274.977 1.274 1.811 0 2.5-.734-1.208-1.067-2.541-1-4 5.003-.741 5.003-2.074 0-4Z" style="opacity:1"/><path fill="#a59f9e" d="M107.5 155.5a11.123 11.123 0 0 0-1 2.5 80.21 80.21 0 0 1 2 9.5h3c-1.068.934-2.401 1.268-4 1-.599-3.521-1.932-6.521-4-9a13.797 13.797 0 0 1 4-4Z" style="opacity:1"/><path fill="#edf0ee" d="M108.5 153.5a55.428 55.428 0 0 1 11 10c-1.839 2.635-4.506 3.968-8 4h-3a80.21 80.21 0 0 0-2-9.5c.243-.902.577-1.735 1-2.5-.172-.992.162-1.658 1-2Z" style="opacity:1"/><path fill="#8d8d8d" d="m157.5 159.5 2 1c-.689 2.689-2.356 4.356-5 5l-1-2c2.333-.333 3.667-1.667 4-4Z" style="opacity:1"/><path fill="#232325" d="M55.5 157.5c5.003 1.926 5.003 3.259 0 4-.067 1.459.266 2.792 1 4h-4v4c-2.473.412-3.806-.588-4-3a71.888 71.888 0 0 1 7-9Z" style="opacity:1"/><path fill="#9d9da1" d="M79.5 151.5h1a60.94 60.94 0 0 0 .5 11 400.24 400.24 0 0 1 6.5-7c.667 0 1 .333 1 1-3.105 2.775-5.438 6.108-7 10l-2-1v-14Z" style="opacity:1"/><path fill="#404679" d="M79.5 155.5v10l-12-3c-1.653-.16-2.986-.826-4-2v-1c4.064.312 7.897 1.312 11.5 3 1.547-2.421 3.047-4.754 4.5-7Z" style="opacity:1"/><path fill="#f2e9eb" d="M103.5 159.5c2.068 2.479 3.401 5.479 4 9h-6v-6c-.073-1.527.594-2.527 2-3Z" style="opacity:1"/><path fill="#878589" d="M137.5 163.5c.683 1.676 2.017 2.343 4 2 .067 1.459-.266 2.792-1 4-1.274-.689-1.274-1.523 0-2.5a8.43 8.43 0 0 0-4-.5c-.237-1.291.096-2.291 1-3Z" style="opacity:1"/><path fill="#1d1d1e" d="M137.5 163.5c-.904.709-1.237 1.709-1 3a8.43 8.43 0 0 1 4 .5c-1.274.977-1.274 1.811 0 2.5a71.254 71.254 0 0 0 4 2c-1.22 1.996-2.886 2.829-5 2.5l-5.5-7.5c-.711-1.867-.211-3.367 1.5-4.5 1.316-.528 1.983-.028 2 1.5Z" style="opacity:1"/><path fill="#b8acac" d="M91.5 159.5h1c-.484 3.288.516 5.955 3 8 1.554 1.395 1.221 2.061-1 2-2.85-.464-5.516-1.131-8-2 1.478.262 2.811-.071 4-1a15.42 15.42 0 0 0 1-7Z" style="opacity:1"/><path fill="#323237" d="m67.5 162.5 12 3 2 1a20.69 20.69 0 0 0 5 1c2.484.869 5.15 1.536 8 2 2.221.061 2.554-.605 1-2l4 1c2.772 1.267 5.439 1.267 8 0 1.599.268 2.932-.066 4-1 3.494-.032 6.161-1.365 8-4 .667 0 1-.333 1-1h9c-2.294 2.153-4.96 3.82-8 5-3.525.71-6.858 1.71-10 3-15.91 3.129-30.576.462-44-8Z" style="opacity:1"/><path fill="#c9adad" d="M101.5 162.5v6h6c-2.561 1.267-5.228 1.267-8 0-.447-2.51.22-4.51 2-6Z" style="opacity:1"/><path fill="#b0b0b1" d="m121.5 167.5 1 2c-3.469-.613-5.469.721-6 4-.904-.709-1.237-1.709-1-3h-4c3.142-1.29 6.475-2.29 10-3Z" style="opacity:1"/><path fill="#a2a2a2" d="M56.5 165.5c-.709.904-1.709 1.237-3 1 .241 2.386-.425 4.386-2 6-1.667-1-3-2.333-4-4-.172-.992.162-1.658 1-2 .194 2.412 1.527 3.412 4 3v-4h4Z" style="opacity:1"/><path fill="#363636" d="M122.5 169.5a24.558 24.558 0 0 1 3 6v1c-1.545.73-2.378 2.063-2.5 4-1.682-1.365-1.849-2.865-.5-4.5a8.43 8.43 0 0 0-4-.5v3c-1.037-1.43-1.704-3.097-2-5 .531-3.279 2.531-4.613 6-4Z" style="opacity:1"/><path fill="#e9e9e9" d="M63.5 160.5c1.014 1.174 2.347 1.84 4 2 13.424 8.462 28.09 11.129 44 8h4c-.237 1.291.096 2.291 1 3 .296 1.903.963 3.57 2 5v1a19.22 19.22 0 0 0 1 6c-3.736 1.489-7.736 2.156-12 2-1.291.237-2.291-.096-3-1v-1a60.931 60.931 0 0 0-.5-11c-1.943-1.307-3.777-1.307-5.5 0-.983 3.798-1.317 7.798-1 12-3.125.979-6.458 1.313-10 1h-3v-2c.5-3.52 1.5-6.854 3-10-1.391-3.422-3.725-4.422-7-3a5680.287 5680.287 0 0 1-3 8l-2 4c-8.834-2.417-16.834-6.417-24-12 1.575-1.614 2.241-3.614 2-6 1.291.237 2.291-.096 3-1 1.274-.689 1.274-1.523 0-2.5 2.56-.384 4.894-1.217 7-2.5Z" style="opacity:1"/><path fill="#1d1d1d" d="M66.5 165.5c1.894.548 3.56 1.548 5 3-2.473 2.552-4.306 5.552-5.5 9-1.011.837-2.178 1.17-3.5 1 2.176-4.033 3.51-8.367 4-13Z" style="opacity:1"/><path fill="#161616" d="M125.5 176.5c1.288 1.535 1.288 3.201 0 5a37.138 37.138 0 0 0-4.5 2c-.608-1.566-1.442-2.9-2.5-4v-4a8.43 8.43 0 0 1 4 .5c-1.349 1.635-1.182 3.135.5 4.5.122-1.937.955-3.27 2.5-4Z" style="opacity:1"/><path fill="#0f0e0e" d="M104.5 185.5c-1.604-2.903-2.604-6.237-3-10a3.647 3.647 0 0 0-1.5 1l-1 9a60.94 60.94 0 0 1-.5-11c1.723-1.307 3.557-1.307 5.5 0 .499 3.652.665 7.318.5 11Z" style="opacity:1"/><path fill="#252526" d="M84.5 185.5c-1.664-1.449-2.498-3.449-2.5-6-1.009 1.525-1.509 3.192-1.5 5h-3v-4a4834.85 4834.85 0 0 0 3-8c3.275-1.422 5.609-.422 7 3-1.5 3.146-2.5 6.48-3 10Z" style="opacity:1"/><path fill="#b9b9b9" d="M125.5 176.5v-1c1.874 1.582 3.207 3.582 4 6-2.87 2.294-6.203 3.628-10 4a19.22 19.22 0 0 1-1-6c1.058 1.1 1.892 2.434 2.5 4a37.138 37.138 0 0 1 4.5-2c1.288-1.799 1.288-3.465 0-5Z" style="opacity:1"/><path fill="#929292" d="M84.5 185.5v2a85.92 85.92 0 0 1-9-3l2-4v4h3c-.009-1.808.491-3.475 1.5-5 .002 2.551.836 4.551 2.5 6Z" style="opacity:1"/><path fill="#b0b0b0" d="M132.5 183.5c-.111.617-.444 1.117-1 1.5a81.712 81.712 0 0 1-12 3.5c4.022-2.234 8.356-3.901 13-5Z" style="opacity:1"/><path fill="#404040" d="M98.5 174.5a60.94 60.94 0 0 0 .5 11l1-9a3.647 3.647 0 0 1 1.5-1c.396 3.763 1.396 7.097 3 10v1c-2.333 1.333-4.667 1.333-7 0-.317-4.202.017-8.202 1-12Z" style="opacity:1"/><path fill="#959595" d="M97.5 186.5c2.333 1.333 4.667 1.333 7 0 .709.904 1.709 1.237 3 1a50.512 50.512 0 0 1-20 0c3.542.313 6.875-.021 10-1Z" style="opacity:1"/></svg>