<svg xmlns="http://www.w3.org/2000/svg" width="94" height="73" style="shape-rendering:geometricPrecision;text-rendering:geometricPrecision;image-rendering:optimizeQuality;fill-rule:evenodd;clip-rule:evenodd"><path fill="#0f74bc" d="M87.5 54.5c-9.182.327-18.182-.007-27-1 4.184-5.285 3.517-9.951-2-14 .947-1.478 2.28-2.478 4-3v-11c-9.006-.166-18.006 0-27 .5-5.17 2.47-6.337 6.304-3.5 11.5 4.963 2.995 9.963 5.995 15 9 1.494 5.836-.673 8.002-6.5 6.5 3.432-2.367 3.765-5.034 1-8-3.526-1.337-7.192-1.837-11-1.5v12c-7.695.33-15.362-.002-23-1a799.209 799.209 0 0 1 40-53 818.453 818.453 0 0 1 40 53Z" style="opacity:1"/><path fill="#4e90c1" d="M50.5 33.5a111.25 111.25 0 0 1-2-5c-1.611.82-2.278 2.154-2 4-1.274-5.046.726-6.713 6-5-1.586 1.673-2.253 3.673-2 6Z" style="opacity:1"/><path fill="#1575bd" d="M50.5 33.5c.333 1 1 1.667 2 2 0 .667-.333 1-1 1-2.254-.624-3.92-1.957-5-4-.278-1.846.389-3.18 2-4a111.25 111.25 0 0 0 2 5Z" style="opacity:1"/><path fill="#4f93c7" d="M52.5 35.5c3.228.914 6.561 1.247 10 1-1.72.522-3.053 1.522-4 3-2.563-.588-4.896-1.588-7-3 .667 0 1-.333 1-1Z" style="opacity:1"/><path fill="#3e95ce" d="M60.5 53.5c8.818.993 17.818 1.327 27 1-9.254 1.154-19.254 1.32-30 .5l3-1.5Z" style="opacity:1"/><path fill="#abaaae" d="M80.5 60.5c3.476-1.143 7.142-1.31 11-.5 1.3 1.615 1.3 3.115 0 4.5a4.932 4.932 0 0 0-.5-3c-1.746 1.957-3.912 2.957-6.5 3v-3a8.434 8.434 0 0 0 4-.5 32.437 32.437 0 0 0-8-.5Z" style="opacity:1"/><path fill="#89898c" d="M44.5 59.5a13.117 13.117 0 0 1 7 1c2.595 6.671 4.261 6.338 5-1h7a60.94 60.94 0 0 0 .5 11l5-10c1.814-1.26 3.647-1.26 5.5 0l5 10-2 1a20.8 20.8 0 0 0-5.5-2c-3.943 1.6-8.11 2.266-12.5 2 .562-10.064-.605-10.398-3.5-1-1.333 1.333-2.667 1.333-4 0-2.887-9.467-4.053-9.133-3.5 1h-4v-12Z" style="opacity:1"/><path fill="#eaeaec" d="M70.5 63.5c3.81 1.254 3.81 2.254 0 3v-3Z" style="opacity:1"/><path fill="#88898b" d="M18.5 59.5h5c3.713 12.783 5.38 12.783 5 0a9.864 9.864 0 0 1 6 1c3.578 8.26 5.245 7.927 5-1h4v12a18.436 18.436 0 0 1-6-.5c-3.792-8.39-5.458-8.222-5 .5a33.767 33.767 0 0 1-12.5-2c-2.48 1.014-4.98 1.514-7.5 1.5 2.14-3.781 4.14-7.615 6-11.5Z" style="opacity:1"/><path fill="transparent" d="M19.5 63.5c1.548.321 2.215 1.321 2 3-2.748.098-3.414-.902-2-3Z" style="opacity:1"/><path fill="#858688" d="M80.5 60.5a32.437 32.437 0 0 1 8 .5 8.434 8.434 0 0 1-4 .5v3c2.588-.043 4.754-1.043 6.5-3 .483.948.65 1.948.5 3a21.445 21.445 0 0 1 1 7h-4c.744-3.45-.59-5.116-4-5v5h-4v-11Z" style="opacity:1"/><path fill="#88888a" d="M2.5 59.5c3.802-.62 7.135.214 10 2.5a87.656 87.656 0 0 0-8 .5c2.047 1.515 4.38 2.349 7 2.5 1.435 2.267 1.101 4.267-1 6a16.25 16.25 0 0 1-8 0c-1.473-.71-2.14-1.876-2-3.5 2.166.079 4.166.746 6 2l2-1a36.648 36.648 0 0 1-7.5-4c-.613-1.995-.113-3.662 1.5-5Z" style="opacity:1"/></svg>