<svg xmlns="http://www.w3.org/2000/svg" width="200" height="202" style="shape-rendering:geometricPrecision;text-rendering:geometricPrecision;image-rendering:optimizeQuality;fill-rule:evenodd;clip-rule:evenodd"><path fill="#195a1b" d="M127.5 53.5a124.74 124.74 0 0 0-10-16c-6.098-13.04-15.765-16.54-29-10.5-3.527 2.362-6.527 5.196-9 8.5-.262-1.478.071-2.811 1-4 1.688-1.021 3.021-2.355 4-4 .904-.709 1.237-1.709 1-3h-3v-3h-3v-4h4v3h4v-3h8c2.1.023 3.933-.644 5.5-2 1.826.51 1.993 1.344.5 2.5-3.826 2.251-7.826 3.918-12 5 5.187.558 10.187.058 15-1.5-.262-1.478.071-2.811 1-4 1.571 1.915 3.571 2.915 6 3 .219 1.175-.114 2.175-1 3-1.391-1.145-2.724-1.145-4 0 2.774 1.414 5.44 2.414 8 3a131.447 131.447 0 0 0 10.5 19 37.921 37.921 0 0 1 2.5 8Z" style="opacity:1"/><path fill="#0a5c2f" d="M84.5 27.5c-.979 1.645-2.312 2.979-4 4-.929 1.189-1.262 2.522-1 4-1.677-.683-2.343-2.017-2-4-2.09-.05-3.423.95-4 3 .825.886 1.825 1.219 3 1 .16 1.7-.007 3.366-.5 5-1.88 2.027-3.046 4.36-3.5 7-2.216.225-3.883-.608-5-2.5 3.53-.672 4.863-2.838 4-6.5h-5c.412-2.473-.588-3.806-3-4a65.647 65.647 0 0 0 6.5-7l1 1c4.386-3.419 8.886-3.752 13.5-1Z" style="opacity:1"/><path fill="#0c5d30" d="M106.5 6.5a20.69 20.69 0 0 1 5 1c8.745 3.794 15.578 9.794 20.5 18a813.76 813.76 0 0 0 17.5 34h-3c-.255-2.516-1.089-4.85-2.5-7a4.458 4.458 0 0 1-1.5 2c-.504-2.842-2.171-4.175-5-4v4c1.322-.17 2.489.163 3.5 1a14.72 14.72 0 0 0 1.5 5 4.458 4.458 0 0 0 1.5-2c1.046 1.272 1.546 2.772 1.5 4.5a154.343 154.343 0 0 1-1 10.5c-1.383-2.576-2.217-2.242-2.5 1-.671.752-1.504 1.086-2.5 1-.667 0-1-.333-1-1-.135-3.007.865-5.507 3-7.5l-.5-2.5a22.37 22.37 0 0 1-6.5 3v-4h3v-8c-2.829-.175-4.496 1.158-5 4-1.381-.5-2.047-1.5-2-3 1.254-1.834 1.921-3.834 2-6h-3c.215 1.679-.452 2.679-2 3a37.921 37.921 0 0 0-2.5-8 131.447 131.447 0 0 1-10.5-19c-2.56-.586-5.226-1.586-8-3 1.276-1.145 2.609-1.145 4 0 .886-.825 1.219-1.825 1-3-2.429-.085-4.429-1.085-6-3-.929 1.189-1.262 2.522-1 4-4.813 1.558-9.813 2.058-15 1.5 4.174-1.082 8.174-2.749 12-5 1.493-1.156 1.326-1.99-.5-2.5-1.567 1.356-3.4 2.023-5.5 2 .418-.722 1.084-1.222 2-1.5a68.833 68.833 0 0 0-14 0c-.78-1.073-.613-2.24.5-3.5A18.12 18.12 0 0 0 89.5 8a67.713 67.713 0 0 1 17-1.5Z" style="opacity:1"/><path fill="#0d5733" d="M106.5 6.5a67.713 67.713 0 0 0-17 1.5 18.12 18.12 0 0 1-5.5 4.5c-1.113 1.26-1.28 2.427-.5 3.5a68.833 68.833 0 0 1 14 0c-.916.278-1.582.778-2 1.5h-8v3h-4v-3h-4v4h3v3h3c.237 1.291-.096 2.291-1 3-4.614-2.752-9.114-2.419-13.5 1l-1-1a65.647 65.647 0 0 1-6.5 7v5h3a30.712 30.712 0 0 1-3 13.5l1 3.5a9.864 9.864 0 0 0 1-6c1.846-.278 3.18.389 4 2-1.693 2.684-3.36 5.35-5 8-3.873-1.899-5.873-5.065-6-9.5-1-.667-2-.667-3 0-.474 1.729-1.474 2.895-3 3.5.172-.992-.162-1.658-1-2 5.913-13.509 13.58-25.842 23-37a32.282 32.282 0 0 0 6-4.5c8.153-5.297 16.82-6.797 26-4.5Z" style="opacity:1"/><path fill="#f6ee17" d="M117.5 37.5a124.74 124.74 0 0 1 10 16 77.698 77.698 0 0 0 7 13v1a35.68 35.68 0 0 0 4 7c0 .667.333 1 1 1a139.943 139.943 0 0 0 10 20v1c1.512 3.701 3.512 7.034 6 10v3h-19c0-.667-.333-1-1-1a245.228 245.228 0 0 1-5.5-12c-.708-.88-1.542-1.547-2.5-2a8.43 8.43 0 0 0-.5-4 61.436 61.436 0 0 1-7.5-15c.191-3.483.857-6.816 2-10-1.644-.213-3.144.12-4.5 1 .936-2.857 1.269-5.857 1-9l-2.5 3a22.524 22.524 0 0 0-3-4c2.15-2.422 2.483-5.09 1-8 3.297-2.932 4.63-6.599 4-11Z" style="opacity:1"/><path fill="#fce614" d="M117.5 37.5c.63 4.401-.703 8.068-4 11 1.483 2.91 1.15 5.578-1 8a22.524 22.524 0 0 1 3 4l2.5-3c.269 3.143-.064 6.143-1 9 1.356-.88 2.856-1.213 4.5-1-1.143 3.184-1.809 6.517-2 10l-13-22a27.65 27.65 0 0 0-5-9h4c.213 2.975 1.213 5.642 3 8a18.915 18.915 0 0 0 3-5c-1.912-2.041-2.079-4.041-.5-6a6.802 6.802 0 0 0 1.5 3l2-7c1.027-1.291 2.027-1.291 3 0Z" style="opacity:1"/><path fill="#dd4109" d="M101.5 44.5a27.65 27.65 0 0 1 5 9c-2.002-2.01-4.002-4.01-6-6l-2 .5c2.62 2.56 2.62 5.06 0 7.5a111.25 111.25 0 0 1-2-5 8.19 8.19 0 0 1-4 2.5c-1.497 6.653-4.83 12.153-10 16.5a208.823 208.823 0 0 1 13-24 9.864 9.864 0 0 1 6-1Z" style="opacity:1"/><path fill="#145f17" d="M134.5 66.5a77.698 77.698 0 0 1-7-13c1.548-.321 2.215-1.321 2-3h3c-.079 2.166-.746 4.166-2 6-.047 1.5.619 2.5 2 3 .504-2.842 2.171-4.175 5-4v8h-3v3Z" style="opacity:1"/><path fill="#175a1d" d="M79.5 35.5a1366.545 1366.545 0 0 1-22.5 44 49.078 49.078 0 0 1-5.5 8 72.503 72.503 0 0 1 2-6.5 13.487 13.487 0 0 1-2-4c2.434-4.138 3.767-8.638 4-13.5h3c-.95 2.707-.95 5.374 0 8a88.477 88.477 0 0 0 6-11c1.64-2.65 3.307-5.316 5-8-.82-1.611-2.154-2.278-4-2a9.864 9.864 0 0 1-1 6l-1-3.5a30.712 30.712 0 0 0 3-13.5h-3v-5c2.412.194 3.412 1.527 3 4h5c.863 3.662-.47 5.828-4 6.5 1.117 1.892 2.784 2.725 5 2.5.454-2.64 1.62-4.973 3.5-7 .493-1.634.66-3.3.5-5-1.175.219-2.175-.114-3-1 .577-2.05 1.91-3.05 4-3-.343 1.983.323 3.317 2 4Z" style="opacity:1"/><path fill="#16631e" d="M138.5 74.5a35.68 35.68 0 0 1-4-7 22.37 22.37 0 0 0 6.5-3l.5 2.5c-2.135 1.993-3.135 4.493-3 7.5Z" style="opacity:1"/><path fill="#fbd324" d="M79.5 73.5c-.968 2.6-2.3 4.934-4 7a51.639 51.639 0 0 0 1-7h3Z" style="opacity:1"/><path fill="#0d6129" d="m149.5 59.5 2 4c-1.073.75-1.24 1.75-.5 3a59.258 59.258 0 0 1 6.5 13h-6a41.323 41.323 0 0 0 3 7.5c-.745 3.534-2.412 6.367-5 8.5a139.943 139.943 0 0 1-10-20c.996.086 1.829-.248 2.5-1 .283-3.242 1.117-3.576 2.5-1 .462-3.582.795-7.082 1-10.5.046-1.728-.454-3.228-1.5-4.5a4.458 4.458 0 0 1-1.5 2 14.72 14.72 0 0 1-1.5-5c-1.011-.837-2.178-1.17-3.5-1v-4c2.829-.175 4.496 1.158 5 4a4.458 4.458 0 0 0 1.5-2c1.411 2.15 2.245 4.484 2.5 7h3Z" style="opacity:1"/><path fill="#e54f22" d="M103.5 83.5a25.565 25.565 0 0 1-4.5-4l-1.5 1c-2.258 5.528-5.258 10.528-9 15a34.515 34.515 0 0 1 5.5-12 34.077 34.077 0 0 0 1.5-8c.996-.086 1.83.248 2.5 1a34.208 34.208 0 0 1 1.5-8c1.35 5.008 2.683 10.008 4 15Z" style="opacity:1"/><path fill="#0b592d" d="M64.5 60.5a88.477 88.477 0 0 1-6 11c-.95-2.626-.95-5.293 0-8h-3c-.233 4.862-1.566 9.362-4 13.5a13.487 13.487 0 0 0 2 4 72.503 72.503 0 0 0-2 6.5 92.194 92.194 0 0 1-4 10 87.23 87.23 0 0 0-6 11h-2a154.315 154.315 0 0 0 5-10.5l-.5-1.5c-2.584 3.045-5.75 4.545-9.5 4.5a7.252 7.252 0 0 1-2-2.5l6-2c-.825-.886-1.825-1.219-3-1 .651-8.955 3.318-17.289 8-25a32.367 32.367 0 0 1 4.5-3c.651-1.735.485-3.402-.5-5 2.043-2.511 3.71-5.178 5-8 1.526-.605 2.526-1.771 3-3.5 1-.667 2-.667 3 0 .127 4.435 2.127 7.601 6 9.5Z" style="opacity:1"/><path fill="#e74e26" d="M111.5 98.5a126.22 126.22 0 0 1-8-13v-2c1.075 1.062 2.075 1.062 3 0a6.845 6.845 0 0 1-1-4h3c1.1 3.46.766 6.626-1 9.5l1 1.5 2-4c.324 4.013.657 8.013 1 12Z" style="opacity:1"/><path fill="#f82010" d="M98.5 55.5a37.745 37.745 0 0 0 4 6c1.299-.59 2.132-1.59 2.5-3 .212 2.28 1.045 4.28 2.5 6a101.862 101.862 0 0 0-3 12 74.091 74.091 0 0 1-1.5-12c-1.356-.88-2.856-1.214-4.5-1 .216 2.18-.617 3.847-2.5 5a24.939 24.939 0 0 0-.5 7 34.077 34.077 0 0 1-1.5 8 34.515 34.515 0 0 0-5.5 12v2h-4v4a6.845 6.845 0 0 0-4 1c-.886-.825-1.219-1.825-1-3h-10c-.555-4.084.445-4.75 3-2a4.452 4.452 0 0 0 1.5-2 20.435 20.435 0 0 1 1.5-5.5c-1.108-2.99-.275-5.49 2.5-7.5l1-5c1.011-.837 2.178-1.17 3.5-1v3c1.175.219 2.175-.114 3-1-2.198-2.594-3.198-5.594-3-9 5.17-4.347 8.503-9.847 10-16.5a8.19 8.19 0 0 0 4-2.5 111.25 111.25 0 0 0 2 5Z" style="opacity:1"/><path fill="#0c5944" d="M146.5 82.5c1.322-.17 2.489.163 3.5 1 .497 2.31.663 4.643.5 7-1.175.219-2.175-.114-3-1a15.417 15.417 0 0 1-1-7Z" style="opacity:1"/><path fill="#f53310" d="m106.5 53.5 13 22a61.436 61.436 0 0 0 7.5 15 8.43 8.43 0 0 1 .5 4c-.354 2.92.646 5.254 3 7a19.883 19.883 0 0 1-8 2.5c1.898 1.417 3.564 2.917 5 4.5-4.273.419-8.273-.248-12-2l-4-8c-.343-3.987-.676-7.987-1-12l-2 4-1-1.5c1.766-2.874 2.1-6.04 1-9.5h-3a6.845 6.845 0 0 0 1 4c-.925 1.062-1.925 1.062-3 0-1.317-4.992-2.65-9.992-4-15a34.208 34.208 0 0 0-1.5 8c-.67-.752-1.504-1.086-2.5-1-.163-2.357.003-4.69.5-7 1.883-1.153 2.716-2.82 2.5-5 1.644-.214 3.144.12 4.5 1 .173 4.04.673 8.04 1.5 12a101.862 101.862 0 0 1 3-12c-1.455-1.72-2.288-3.72-2.5-6-.368 1.41-1.201 2.41-2.5 3a37.745 37.745 0 0 1-4-6c2.62-2.44 2.62-4.94 0-7.5l2-.5c1.998 1.99 3.998 3.99 6 6Z" style="opacity:1"/><path fill="#edf708" d="M127.5 79.5c-.035 4.632 2.298 6.965 7 7a19.522 19.522 0 0 1-1 7.5 340.303 340.303 0 0 0 7 14.5c-1.322.17-2.489-.163-3.5-1a7673.405 7673.405 0 0 1-8-18 6.544 6.544 0 0 1-3-3c.439-2.259.939-4.592 1.5-7Z" style="opacity:1"/><path fill="#166015" d="M155.5 106.5c-2.488-2.966-4.488-6.299-6-10a41.58 41.58 0 0 1 8-1c.175 2.829-1.158 4.496-4 5 1.635 1.181 3.302 1.181 5 0 .929 1.189 1.262 2.522 1 4-1.983-.343-3.317.324-4 2Z" style="opacity:1"/><path fill="#f8ec14" d="M117.5 37.5c-.973-1.291-1.973-1.291-3 0l-2 7a6.802 6.802 0 0 1-1.5-3c-1.579 1.959-1.412 3.959.5 6a18.915 18.915 0 0 1-3 5c-1.787-2.358-2.787-5.025-3-8h-4a9.864 9.864 0 0 0-6 1 208.823 208.823 0 0 0-13 24l-3 4h-3a51.639 51.639 0 0 1-1 7 104.323 104.323 0 0 1-8 16 36.778 36.778 0 0 1-4 7 51.56 51.56 0 0 0-7 1v3h-9c-.488-3.211.179-6.044 2-8.5-.916-.278-1.583-.778-2-1.5a92.194 92.194 0 0 0 4-10 49.078 49.078 0 0 0 5.5-8 1366.545 1366.545 0 0 0 22.5-44c2.473-3.304 5.473-6.138 9-8.5 13.235-6.04 22.902-2.54 29 10.5Z" style="opacity:1"/><path fill="#13563c" d="M51.5 52.5c.838.342 1.172 1.008 1 2-1.29 2.822-2.957 5.489-5 8 .985 1.598 1.151 3.265.5 5a32.367 32.367 0 0 0-4.5 3c-4.682 7.711-7.349 16.045-8 25 1.175-.219 2.175.114 3 1l-6 2a7.252 7.252 0 0 0 2 2.5c3.75.045 6.916-1.455 9.5-4.5l.5 1.5a154.315 154.315 0 0 1-5 10.5c-5.858.322-11.525-.011-17-1a2143.486 2143.486 0 0 1 29-55Z" style="opacity:1"/><path fill="#ee420e" d="M82.5 69.5c-.198 3.406.802 6.406 3 9-.825.886-1.825 1.219-3 1v-3c-1.322-.17-2.489.163-3.5 1l-1 5c-2.775 2.01-3.608 4.51-2.5 7.5a20.435 20.435 0 0 0-1.5 5.5 4.452 4.452 0 0 1-1.5 2c-2.555-2.75-3.555-2.084-3 2h10c-.219 1.175.114 2.175 1 3a6.845 6.845 0 0 1 4-1v-4h3l-3 6c-1.525.674-2.858 1.674-4 3-1.45-1.117-3.116-1.784-5-2a31.29 31.29 0 0 1-8 .5c-.513-2.718-.513-5.552 0-8.5a104.323 104.323 0 0 0 8-16c1.7-2.066 3.032-4.4 4-7l3-4Z" style="opacity:1"/><path fill="#f6e944" d="M47.5 97.5c.417.722 1.084 1.222 2 1.5-1.821 2.456-2.488 5.289-2 8.5h9v-3a51.56 51.56 0 0 1 7-1 17.533 17.533 0 0 0-3 6h-13c-2.049 1.141-4.049 1.141-6 0v-1a87.23 87.23 0 0 1 6-11Z" style="opacity:1"/><path fill="#e47526" d="M67.5 96.5c-.513 2.948-.513 5.782 0 8.5a31.29 31.29 0 0 0 8-.5c1.884.216 3.55.883 5 2 1.142-1.326 2.475-2.326 4-3a44.327 44.327 0 0 1-3 5.5c-6.992.5-13.992.666-21 .5a17.533 17.533 0 0 1 3-6 36.778 36.778 0 0 0 4-7Z" style="opacity:1"/><path fill="#e94423" d="M127.5 94.5c.958.453 1.792 1.12 2.5 2a245.228 245.228 0 0 0 5.5 12h-8c-1.436-1.583-3.102-3.083-5-4.5a19.883 19.883 0 0 0 8-2.5c-2.354-1.746-3.354-4.08-3-7Z" style="opacity:1"/><path fill="#135e31" d="M151.5 63.5a3004.874 3004.874 0 0 0 24 45.5c-5.323.499-10.656.666-16 .5h-4v-3c.683-1.676 2.017-2.343 4-2 .262-1.478-.071-2.811-1-4-1.698 1.181-3.365 1.181-5 0 2.842-.504 4.175-2.171 4-5a41.58 41.58 0 0 0-8 1v-1c2.588-2.133 4.255-4.966 5-8.5a41.323 41.323 0 0 1-3-7.5h6a59.258 59.258 0 0 0-6.5-13c-.74-1.25-.573-2.25.5-3Z" style="opacity:1"/><path fill="#84a499" d="M22.5 107.5c5.475.989 11.142 1.322 17 1h2v1c-6.7.33-13.366-.003-20-1 .124-.607.457-.94 1-1Z" style="opacity:1"/><path fill="#d56c39" d="M115.5 106.5c3.727 1.752 7.727 2.419 12 2h8c.667 0 1 .333 1 1-6.7.33-13.366-.003-20-1a43.836 43.836 0 0 1-1-2Z" style="opacity:1"/><path fill="#739b8c" d="M26.5 124.5h-5v19c-.99-6.479-1.324-13.146-1-20 2.235-.295 4.235.039 6 1Z" style="opacity:1"/><path fill="#90ae98" d="M37.5 124.5c1.765-.961 3.765-1.295 6-1 .324 6.854-.01 13.521-1 20v-19h-5Z" style="opacity:1"/><path fill="#165836" d="M26.5 124.5c-.166 6.342 0 12.675.5 19 3.333 2.667 6.667 2.667 10 0 .5-6.325.666-12.658.5-19h5v19c-1.712 4.944-5.212 7.277-10.5 7-5.677.755-9.177-1.578-10.5-7v-19h5Z" style="opacity:1"/><path fill="#215f3e" d="M169.5 144.5c.734-1.208 1.067-2.541 1-4h6c-3.462 11.657-10.462 14.157-21 7.5-3.115-5.54-3.781-11.373-2-17.5 3.827-5.65 9.16-7.484 16-5.5 3.776 1.605 5.776 4.438 6 8.5-1.788.285-3.455-.048-5-1-4.582-5.484-8.748-5.151-12.5 1-2.086 9.232 1.414 13.398 10.5 12.5.556-.383.889-.883 1-1.5Z" style="opacity:1"/><path fill="#195536" d="M87.5 150.5h-2c-1.25-.077-2.083-.744-2.5-2-6.692 3.42-12.525 2.42-17.5-3-2.667-5.667-2.667-11.333 0-17 3.901-3.8 8.568-5.3 14-4.5 4.422 1.244 6.755 4.077 7 8.5a25.86 25.86 0 0 1-10-4 10.414 10.414 0 0 0-5 1.5c-3.129 5.845-2.462 11.178 2 16 4.99 1.18 7.99-.654 9-5.5h-5v-4h10v14Z" style="opacity:1"/><path fill="#375648" d="M21.5 163.5c1.536 1.525 2.536 3.525 3 6 1.63-1.559 2.464-3.559 2.5-6 .667 2 .667 4 0 6-1.011.837-2.178 1.17-3.5 1-.617-.111-1.117-.444-1.5-1a18.437 18.437 0 0 1-.5-6Z" style="opacity:1"/><path fill="#536f63" d="M174.5 165.5c.934 1.068 1.268 2.401 1 4-1.212.73-2.212 1.73-3 3 .293-1.547-.207-3.214-1.5-5-.949 3.878-2.115 3.878-3.5 0a6.802 6.802 0 0 0-1.5 3 12.93 12.93 0 0 1-.5-5c2.174.42 4.174.42 6 0 1.063 3.93 2.063 3.93 3 0Z" style="opacity:1"/><path fill="#486657" d="M156.5 165.5h1l1 2v2c-1.913 2.542-2.247 2.208-1-1a4.457 4.457 0 0 0-1.5-2l-1.5 6c-.667 0-1-.333-1-1v-6h3Z" style="opacity:1"/><path fill="#55766b" d="M144.5 165.5c4.409-.601 5.742 1.066 4 5a10.258 10.258 0 0 1-1.5-4c-1.458 5.094-2.291 4.761-2.5-1Z" style="opacity:1"/><path fill="#6c887b" d="M62.5 165.5c4-.667 5.667 1 5 5h-5v-5Z" style="opacity:1"/><path fill="#80a69b" d="M158.5 169.5v-2c4.722-3.293 6.722-1.959 6 4-2.358.247-4.358-.419-6-2Z" style="opacity:1"/><path fill="#304942" d="M56.5 163.5c1.644-.214 3.144.12 4.5 1 .495 1.973.662 3.973.5 6-5.747.629-7.414-1.705-5-7Z" style="opacity:1"/><path fill="#335344" d="M150.5 165.5c1.877 1.159 2.377 2.826 1.5 5a42.47 42.47 0 0 1-1.5-5Z" style="opacity:1"/><path fill="#37574c" d="M139.5 165.5c3.752.001 4.752 1.667 3 5 .295-1.326-.205-2.659-1.5-4-2.341 3.866-2.841 3.533-1.5-1Z" style="opacity:1"/><path fill="#3d624d" d="M112.5 165.5c1.241 2.431 2.408 2.431 3.5 0 .624 1.964.124 3.631-1.5 5-1.45-1.35-2.117-3.016-2-5Z" style="opacity:1"/><path fill="#618478" d="M95.5 165.5c.958.453 1.792 1.119 2.5 2 1.77-1.918 3.937-2.418 6.5-1.5 1.48 2.55.813 4.383-2 5.5-1.48-1.489-2.313-3.155-2.5-5-2.288 5.258-3.788 4.924-4.5-1Z" style="opacity:1"/><path fill="#345a4d" d="M41.5 165.5c1.603-.188 2.937.312 4 1.5-.95.617-1.782.451-2.5-.5-.658 1.608-.158 2.775 1.5 3.5-3.793.487-4.793-1.013-3-4.5Z" style="opacity:1"/><path fill="#2d4e40" d="M37.5 164.5c.79.283 1.456.783 2 1.5a35.244 35.244 0 0 0-1 4.5 9.864 9.864 0 0 1-1-6Z" style="opacity:1"/><path fill="#638974" d="M127.5 165.5v1c.384 2.165-.283 3.832-2 5-2.528-.998-2.528-1.831 0-2.5-1.473-.71-2.14-1.876-2-3.5h4Z" style="opacity:1"/><path fill="#5a7d69" d="M118.5 165.5c3.85.201 4.85 2.034 3 5.5-3.963.118-4.963-1.716-3-5.5Z" style="opacity:1"/><path fill="#3c6859" d="M106.5 164.5c1.499 1.178 2.499 2.845 3 5 1.502-3.874 2.169-3.541 2 1h-5v-6Z" style="opacity:1"/><path fill="#436b58" d="M84.5 165.5c2.962-.383 3.962.617 3 3a4.451 4.451 0 0 1-1.5-2c-.658 1.608-.158 2.775 1.5 3.5a8.43 8.43 0 0 1-4 .5c-.134-1.792.2-3.458 1-5Z" style="opacity:1"/><path fill="#364c3d" d="M76.5 163.5c5.658-.821 7.325 1.346 5 6.5-1.634.494-3.3.66-5 .5v-7Z" style="opacity:1"/><path fill="#d1f0df" d="M78.5 164.5c3.201 1.339 3.535 3.006 1 5-.952-1.545-1.285-3.212-1-5Z" style="opacity:1"/><path fill="#5f716d" d="M71.5 165.5c1.333 1.667 1.333 3.333 0 5-3.949-.193-3.949-.693 0-1.5-3.778-1.64-3.778-2.807 0-3.5Z" style="opacity:1"/><path fill="#3a5146" d="M51.5 163.5v7h-5v-5a13.224 13.224 0 0 0 5-2Z" style="opacity:1"/><path fill="#dcf2e9" d="M47.5 166.5c1.965.448 2.298 1.448 1 3-.886-.825-1.219-1.825-1-3Z" style="opacity:1"/><path fill="#537a69" d="M34.5 165.5c2.061 1.251 2.394 2.918 1 5-.952-1.545-1.285-3.212-1-5Z" style="opacity:1"/><path fill="#40584a" d="M28.5 165.5h5c.153 5.824-.513 6.157-2 1-1.902 5.206-2.902 4.873-3-1Z" style="opacity:1"/><path fill="#46534f" d="M137.5 165.5c-1.316-.026-2.816.307-4.5 1-.617.949-.451 1.782.5 2.5h4c-3.494 2.467-5.494 1.634-6-2.5-.016-1.984.984-2.984 3-3 1.538-.047 2.538.62 3 2Z" style="opacity:1"/><path fill="#345642" d="M89.5 165.5a4.934 4.934 0 0 1 3 .5c-1.393 1.171-2.227 2.671-2.5 4.5a12.935 12.935 0 0 1-.5-5Z" style="opacity:1"/><path fill="#155935" d="M109.5 124.5c5.79-.404 11.456.096 17 1.5 3.924 2.343 5.924 5.843 6 10.5.39 6.008-1.943 10.508-7 13.5-5.323.499-10.656.666-16 .5v-26Z" style="opacity:1"/><path fill="#7f938c" d="M123.5 179.5c1.478-.262 2.811.071 4 1l-2 1c-1.213-.247-1.88-.914-2-2Z" style="opacity:1"/><path fill="#6e7a76" d="M54.5 180.5v1a12.935 12.935 0 0 1-.5 5c-2.014-2.47-1.847-4.47.5-6Z" style="opacity:1"/><path fill="#3e534c" d="M126.5 186.5c-.077-1.25-.744-2.083-2-2.5 1.483-1.901 2.483-1.567 3 1-.07.765-.403 1.265-1 1.5Z" style="opacity:1"/><path fill="#697f70" d="M171.5 184.5c.073 1.527-.594 2.527-2 3v-1a18.453 18.453 0 0 1 .5-6 10.134 10.134 0 0 1 1.5 4Z" style="opacity:1"/><path fill="#315d48" d="M27.5 179.5c.961 1.765 1.295 3.765 1 6a112.97 112.97 0 0 0 15-.5c-1.493-1.156-1.326-1.99.5-2.5 1.482 1.612 3.315 2.612 5.5 3a18.437 18.437 0 0 1 .5-6c.769 2.599.602 5.099-.5 7.5-7.212.238-14.545.404-22 .5v-8Z" style="opacity:1"/><path fill="#365446" d="M65.5 183.5c1.291 1.042 1.291 2.208 0 3.5a12.494 12.494 0 0 1-7 0 3.646 3.646 0 0 1-1-1.5c1.223-.509 2.723-.509 4.5 0 1.681-.108 2.848-.775 3.5-2Z" style="opacity:1"/><path fill="#82a898" d="M145.5 184.5c.838.342 1.172 1.008 1 2 0 .667-.333 1-1 1l-11-2c3.871.315 7.538-.018 11-1Z" style="opacity:1"/><path fill="#3f6254" d="M111.5 188.5a18.473 18.473 0 0 1-3.5-2 179.674 179.674 0 0 1-26.5 1 43.116 43.116 0 0 1-13-1c-1.224-2.339-1.224-4.672 0-7a9.864 9.864 0 0 1 1 6 60.93 60.93 0 0 0 11-.5c2.193-3.324 3.526-3.157 4 .5 1.89.203 3.39-.463 4.5-2 1.87 1.243 4.036 1.91 6.5 2 3.938-.658 7.438-.658 10.5 0l4-2c2.595 1.646 5.428 2.313 8.5 2a18.453 18.453 0 0 1 .5-6 12.494 12.494 0 0 1 0 7c-2.607.623-5.107 1.29-7.5 2Z" style="opacity:1"/><path fill="#6c8980" d="M85.5 179.5h4c-.12 1.086-.787 1.753-2 2-1.213-.247-1.88-.914-2-2Z" style="opacity:1"/><path fill="#093424" d="M126.5 186.5c-.886 1.276-1.886 1.276-3 0 .733-.587 1.733-.587 3 0Z" style="opacity:1"/><path fill="#446555" d="m134.5 185.5 11 2a64.873 64.873 0 0 1-16-1 10.258 10.258 0 0 1 4-1.5c-1.211-.893-1.211-1.726 0-2.5.886.825 1.219 1.825 1 3Z" style="opacity:1"/><path fill="#365a47" d="M169.5 186.5v1c-2.235-.295-4.235.039-6 1a462.236 462.236 0 0 0-17-2c.172-.992-.162-1.658-1-2-1.317-1.087-.317-1.254 3-.5 1.51.85 3.01 1.683 4.5 2.5 1.653-.32 2.653-1.32 3-3 .483.948.649 1.948.5 3 2.429-.085 4.429-1.085 6-3 1.758 2.238 4.092 3.238 7 3Z" style="opacity:1"/><path fill="#51645d" d="M23.5 183.5c1.194.47 1.86 1.47 2 3 .312 3.193-1.022 4.36-4 3.5 2.866-1.55 3.532-3.717 2-6.5Z" style="opacity:1"/></svg>